<svg width="32" height="32" viewBox="0 0 32 32" fill="none" xmlns="http://www.w3.org/2000/svg">
<g clip-path="url(#clip0_8951_695)">
<ellipse cx="25.21" cy="8.3615" rx="0.477804" ry="0.743456" transform="rotate(31.2674 25.21 8.3615)" fill="#FF5710"/>
<ellipse cx="8.86371" cy="19.3154" rx="0.477804" ry="0.743456" transform="rotate(-165 8.86371 19.3154)" fill="#FF5710"/>
<path d="M24.4429 6.60384C24.5695 6.38422 24.8319 6.28849 25.0724 6.36068L25.1737 6.4022L26.8684 7.2894C27.1148 7.4184 27.226 7.69985 27.1457 7.94722L27.1002 8.05056L23.4329 14.3431C23.2891 14.5896 22.979 14.6734 22.7254 14.5538L22.6208 14.49L21.1199 13.3396C20.9266 13.1913 20.854 12.9418 20.9292 12.7244L20.9705 12.6329L24.4429 6.60384Z" stroke="#FF5710" stroke-width="1.3"/>
<path d="M8.88152 14.5136C8.98251 14.1623 9.38777 14.0122 9.69055 14.1945L9.74928 14.2357L11.111 15.3109C11.264 15.4318 11.3405 15.6227 11.316 15.8119L11.2991 15.8927L9.70571 21.4312C9.60086 21.7945 9.17382 21.938 8.87202 21.7333L8.81306 21.6881L7.48366 20.5059C7.34541 20.383 7.2792 20.2003 7.304 20.0207L7.32021 19.9442L8.88152 14.5136Z" stroke="#FF5710" stroke-width="1.3"/>
<path d="M12.5308 17.0857L7.99476 13.2474L7.85698 14.3339L11.8672 17.5272L12.5308 17.0857Z" fill="#F5F5F5"/>
<path d="M24.3931 14.7078L20.6037 11.7079L19.1641 11.708L24.3982 15.69L24.3931 14.7078Z" fill="#F5F5F5"/>
<path d="M9.48873 11.0346C9.07472 11.1986 8.64721 11.7498 8.38756 12.2135C8.25484 12.4504 8.28969 12.7376 8.43977 12.9644C8.53335 13.1058 8.64852 13.2317 8.78108 13.3375L12.28 16.1306C12.4677 16.2734 12.9442 16.4437 13.3487 15.9826C13.7532 15.5215 14.9623 15.7674 15.5162 15.948C17.1734 16.3108 20.7455 17.0834 21.7763 17.2718C22.4611 17.3969 22.9202 16.8936 23.2157 16.3895C23.4428 16.002 23.3019 15.5122 22.949 15.233L19.9761 12.8811C19.5681 12.5583 18.9767 12.7228 18.4756 12.8622L18.474 12.8627C18.397 12.8841 18.3189 12.8931 18.2419 12.8853L14.3268 11.773L12.3991 11.2122C11.4429 10.934 10.4137 10.6682 9.48873 11.0346Z" stroke="#FF5710" stroke-width="1.5"/>
<path d="M28.4489 2.64062H3.55216C3.04873 2.64062 2.64062 3.04873 2.64062 3.55216V11.017C2.64062 19.312 7.94917 26.6761 15.8188 29.2982C15.9404 29.3388 16.0719 29.3388 16.1936 29.2982C24.057 26.676 29.3606 19.3166 29.3606 11.0275V3.55239C29.3606 3.04884 28.9524 2.64062 28.4489 2.64062Z" stroke="#FF5710" stroke-width="1.5" stroke-linejoin="round"/>
</g>
<defs>
<clipPath id="clip0_8951_695">
<rect width="32" height="32" fill="white" transform="translate(0 0.000488281)"/>
</clipPath>
</defs>
</svg>
