<svg width="32" height="32" viewBox="0 0 32 32" fill="none" xmlns="http://www.w3.org/2000/svg">
<path d="M15.1945 25.5696H4.98934C4.13389 25.5696 3.4375 24.8795 3.4375 24.0319C3.4375 23.1842 4.13389 22.4941 4.98934 22.4941H16.3595C16.4884 22.4941 16.9613 22.5325 17.1461 22.7029" stroke="#FF5710" stroke-width="1.68346" stroke-miterlimit="10"/>
<path d="M6.51562 19.0674V21.1763" stroke="#FF5710" stroke-width="1.68346" stroke-miterlimit="10"/>
<path d="M6.51562 12.3008V14.4097" stroke="#FF5710" stroke-width="1.68346" stroke-miterlimit="10"/>
<path d="M14.8609 7.47388V6.68056C14.8609 4.64767 12.9937 3 10.6943 3C8.39493 3 6.52344 4.64767 6.52344 6.68056V7.56923" stroke="#FF5710" stroke-width="1.68346" stroke-miterlimit="10"/>
<path d="M16.3887 8.38379C17.7016 8.38403 18.7842 9.44264 18.7842 10.7637C18.784 11.9622 17.8921 12.9406 16.7461 13.1123L15.2178 11.459H16.3887C16.7891 11.4587 17.1013 11.1375 17.1016 10.7637C17.1016 10.3897 16.7892 10.0676 16.3887 10.0674H4.99805C4.59574 10.0674 4.28516 10.3868 4.28516 10.7637C4.28539 11.1404 4.5959 11.459 4.99805 11.459H11.6514C11.4467 12.0115 11.5203 12.6453 11.8809 13.1426H4.99805C3.68656 13.1426 2.6018 12.0904 2.60156 10.7637C2.60156 9.43673 3.68642 8.38379 4.99805 8.38379H16.3887Z" fill="#FF5710"/>
<path d="M16.3716 18.2134L14.8199 19.437L17.9 20.6284C18.139 20.7209 18.3233 20.917 18.4 21.1616C18.4765 21.4062 18.4381 21.673 18.2945 21.8853L14.3814 27.6646L20.8638 23.0044L22.025 24.2427L14.1998 29.8687L14.1939 29.8726C13.9534 30.0425 13.6634 30.1381 13.3628 30.1382C13.0078 30.1381 12.6516 30.0033 12.3775 29.7368L12.3765 29.7378C12.3735 29.7349 12.3707 29.7309 12.3677 29.728C12.3666 29.7269 12.365 29.7261 12.3638 29.7251L12.3648 29.7241C11.8665 29.236 11.8019 28.474 12.1822 27.9097L12.1832 27.9087L16.3062 21.8169L13.7974 20.8472L13.7945 20.8462C13.3269 20.6636 12.9799 20.2457 12.9 19.7388V19.7397C12.8996 19.7378 12.8993 19.7358 12.899 19.7339C12.8984 19.7303 12.8976 19.7267 12.897 19.7231L12.898 19.7222C12.8185 19.2058 13.0343 18.7015 13.4244 18.394L15.2164 16.981L16.3716 18.2134ZM24.688 10.0073C24.9251 10.0274 25.149 10.1064 25.3443 10.2319L25.439 10.2983L25.4478 10.3052L25.5425 10.3853C25.9935 10.8038 26.124 11.4662 25.8687 12.0249L25.8658 12.0308L23.5074 17.0894L26.6744 18.0845L26.7691 18.1206C26.779 18.1251 26.7887 18.1304 26.7984 18.1353C27.2076 18.3071 27.5357 18.6623 27.6431 19.1235L27.6636 19.2251L27.6802 19.4243C27.688 19.8863 27.4723 20.3326 27.0836 20.6099L27.0826 20.6089L25.3013 21.8882L24.1402 20.6499L25.688 19.5386L22.0875 18.4077C22.0614 18.3995 22.0362 18.389 22.0113 18.3784L21.5445 17.8813C21.4728 17.6754 21.4839 17.4488 21.5767 17.2495L23.8863 12.2925L19.5259 15.728L18.3707 14.4956L23.6851 10.3081L23.6978 10.2983C23.9448 10.1111 24.2467 10.0025 24.5679 10.0024L24.688 10.0073Z" fill="#FF5710"/>
<path d="M14.4834 16.0552H4.75781C4.37695 16.0554 4.04297 16.376 4.04297 16.7954C4.04322 17.2146 4.37709 17.5345 4.75781 17.5347H14.6221V19.2183H4.75781C3.42256 19.2181 2.35962 18.1193 2.35938 16.7954C2.35938 15.4713 3.42241 14.3718 4.75781 14.3716H12.9395L14.4834 16.0552ZM15.2266 15.0454L14.6074 14.3716H15.2266V15.0454Z" fill="#FF5710"/>
<path d="M13.5 12L27.5 28.5" stroke="#FF5710" stroke-width="1.5" stroke-linecap="round"/>
</svg>
