<svg width="28" height="28" viewBox="0 0 28 28" fill="none" xmlns="http://www.w3.org/2000/svg">
<path d="M22.642 5.49613C21.7523 4.58805 20.6904 3.86643 19.5186 3.37346C18.3467 2.88049 17.0883 2.62606 15.817 2.62503H15.7809C14.5154 2.62178 13.2618 2.86961 12.0927 3.35418C10.9236 3.83875 9.86229 4.55042 8.97015 5.448L2.25561 12.25C1.93055 12.5788 1.74878 13.0228 1.75001 13.4851C1.75124 13.9475 1.93536 14.3905 2.26218 14.7175L5.39686 17.8522C5.55913 18.0153 5.75209 18.1445 5.9646 18.2326C6.17711 18.3206 6.40496 18.3657 6.63499 18.3652H6.64483C6.87653 18.3639 7.10566 18.3167 7.31895 18.2262C7.53224 18.1357 7.72544 18.0037 7.88733 17.838L14.5483 11.013C14.8735 10.691 15.3115 10.5085 15.7692 10.5042C16.2268 10.4999 16.6681 10.6742 16.9994 10.99C17.1631 11.1491 17.2932 11.3393 17.3821 11.5496C17.4709 11.7598 17.5167 11.9857 17.5167 12.2139C17.5189 12.4568 17.4732 12.6978 17.3822 12.923C17.2912 13.1482 17.1566 13.3533 16.9862 13.5264L10.1733 20.1119C10.0069 20.2735 9.87425 20.4665 9.78312 20.6798C9.69199 20.8931 9.64416 21.1224 9.64243 21.3543C9.6407 21.5863 9.6851 21.8163 9.77304 22.0309C9.86098 22.2455 9.9907 22.4405 10.1547 22.6046L13.2894 25.7393C13.6162 26.064 14.0575 26.2474 14.5182 26.2499C14.979 26.2523 15.4222 26.0737 15.7525 25.7524L22.5119 19.1407C26.2798 15.3672 26.3378 9.24878 22.642 5.49613ZM6.63499 16.613L3.5014 13.4794L6.71921 10.2189L9.83421 13.3339L6.63499 16.613ZM14.5253 24.5L11.3884 21.3664L14.6839 18.1803L17.8 21.2953L14.5253 24.5Z" fill="white"/>
</svg>
