<svg width="28" height="28" viewBox="0 0 28 28" fill="none" xmlns="http://www.w3.org/2000/svg">
<path d="M13.2952 22.3727H4.36567C3.61716 22.3727 3.00781 21.7689 3.00781 21.0271C3.00781 20.2854 3.61716 19.6816 4.36567 19.6816H14.3145C14.4274 19.6816 14.8411 19.7152 15.0029 19.8643" stroke="white" stroke-width="1.47303" stroke-miterlimit="10"/>
<path d="M5.70312 16.6836V18.5289" stroke="white" stroke-width="1.47303" stroke-miterlimit="10"/>
<path d="M5.70312 10.7637V12.6089" stroke="white" stroke-width="1.47303" stroke-miterlimit="10"/>
<path d="M13.0062 6.53965V5.84549C13.0062 4.06671 11.3724 2.625 9.36045 2.625C7.34849 2.625 5.71094 4.06671 5.71094 5.84549V6.62308" stroke="white" stroke-width="1.47303" stroke-miterlimit="10"/>
<path d="M14.3447 7.33398C15.4936 7.33416 16.4414 8.2601 16.4414 9.41602C16.4413 10.4646 15.6608 11.3211 14.6582 11.4717L13.3213 10.0244H14.3447C14.6952 10.0242 14.9677 9.74321 14.9678 9.41602C14.9678 9.08874 14.6952 8.80682 14.3447 8.80664H4.37793C4.02591 8.80664 3.75391 9.08623 3.75391 9.41602C3.75401 9.74572 4.02598 10.0244 4.37793 10.0244H10.2041C10.0241 10.5075 10.0868 11.0625 10.4014 11.498H4.37793C3.23032 11.498 2.28136 10.577 2.28125 9.41602C2.28125 8.25494 3.23026 7.33398 4.37793 7.33398H14.3447Z" fill="white"/>
<path d="M14.3303 15.9365L12.9739 17.0068L15.6702 18.0488C15.8793 18.1297 16.0405 18.3017 16.1077 18.5156C16.1747 18.7298 16.1407 18.9636 16.0149 19.1494L12.5911 24.2061L18.261 20.1299L19.2776 21.2139L12.4319 26.1348L12.427 26.1377C12.2166 26.2864 11.9634 26.371 11.7004 26.3711C11.3895 26.371 11.0771 26.2522 10.8372 26.0186L10.8362 26.0195C10.8338 26.0172 10.8317 26.0141 10.8293 26.0117C10.8282 26.0107 10.8265 26.0099 10.8254 26.0088L10.8264 26.0078C10.3908 25.5807 10.3347 24.9145 10.6672 24.4209V24.4199L14.2756 19.0889L12.0793 18.2412L12.0774 18.2402C11.6686 18.0804 11.3652 17.7147 11.2952 17.2715L11.2942 17.2725C11.2179 16.8153 11.4081 16.3658 11.7532 16.0938L13.3196 14.8584L14.3303 15.9365ZM21.6096 8.75586C21.8167 8.77337 22.0123 8.8427 22.1829 8.95215L22.2668 9.01074L22.2737 9.0166L22.3567 9.08691C22.7514 9.45311 22.8653 10.0326 22.6418 10.5215L22.6399 10.5264L20.5764 14.9531L23.3469 15.8232L23.4299 15.8545C23.4392 15.8587 23.4482 15.8645 23.4573 15.8691C23.7888 16.0088 24.0599 16.2852 24.1721 16.6465L24.2122 16.8223L24.2278 16.9961C24.2345 17.4003 24.0455 17.7907 23.7053 18.0332L23.7043 18.0322L22.1438 19.1533L21.1282 18.0693L22.4836 17.0957L19.3333 16.1064C19.3095 16.099 19.2865 16.0898 19.2639 16.0801L18.8616 15.6514C18.7968 15.4697 18.8049 15.2689 18.887 15.0928L20.9075 10.7549L17.0901 13.7617L16.0793 12.6836L20.7317 9.01855L20.7424 9.01074L20.8254 8.95215C21.0246 8.82415 21.2582 8.75211 21.5042 8.75195L21.6096 8.75586Z" fill="white"/>
<path d="M12.6797 14.0469H4.16895C3.83564 14.0469 3.54305 14.3274 3.54297 14.6943C3.54297 15.0614 3.83559 15.3417 4.16895 15.3418H12.7998V16.8154H4.16895C3.00035 16.8154 2.07031 15.853 2.07031 14.6943C2.0704 13.5357 3.00041 12.5743 4.16895 12.5742H11.3291L12.6797 14.0469ZM13.3291 13.1631L12.7891 12.5742H13.3291V13.1631Z" fill="white"/>
<path d="M11.8125 10.5L24.0625 24.9375" stroke="white" stroke-width="1.3125" stroke-linecap="round"/>
</svg>
