<svg width="32" height="32" viewBox="0 0 32 32" fill="none" xmlns="http://www.w3.org/2000/svg">
<path d="M24.2747 24.148H22.5727V26.2755C22.5727 26.7456 22.9536 27.1265 23.4237 27.1265H26.8277C27.2979 27.1265 27.6787 26.7456 27.6787 26.2755V23.6352L28.0159 22.013C28.0744 21.729 28.1042 21.4386 28.1042 21.1482V16.6358C28.1042 16.3401 28.0532 16.0454 27.9521 15.7678L26.4022 12.6595H28.9552C29.2297 12.6595 29.4318 12.4042 29.369 12.1372L29.0254 10.3703C28.9478 9.97032 28.5978 9.68098 28.1904 9.68098H26.1363L24.1609 6.2738C23.7046 5.48556 22.8631 5.00049 21.9526 5.00049H10.4279C9.51734 5.00049 8.67592 5.48556 8.21957 6.2738L6.24419 9.68098H4.19009C3.78267 9.68098 3.4327 9.97032 3.35504 10.3703L3.01145 12.1372C2.94869 12.4042 3.15187 12.6595 3.42525 12.6595H5.97825L4.42837 15.7678C4.32731 16.0465 4.27625 16.3401 4.27625 16.6358V21.1471C4.27625 21.4375 4.30604 21.7279 4.36454 22.012L4.70175 23.6342V26.2744C4.70175 26.7446 5.08257 27.1254 5.55275 27.1254H8.95675C9.42692 27.1254 9.80774 26.7446 9.80774 26.2744V24.1469H8.10575" stroke="#FF5710" stroke-width="1.5" stroke-linecap="round" stroke-linejoin="round"/>
<path d="M17.8906 24.1479H23.4221" stroke="#FF5710" stroke-width="1.5" stroke-linecap="round" stroke-linejoin="round"/>
<path d="M9.38281 24.1478H13.6378C15.0473 24.1478 16.1908 23.0042 16.1908 21.5948V19.4673" stroke="#FF5710" stroke-width="1.5" stroke-linecap="round" stroke-linejoin="round"/>
<path d="M12.7891 16.0632V12.6592H19.5971V16.0632C19.5971 17.9428 18.0727 19.4672 16.1931 19.4672C14.3134 19.4672 12.7891 17.9428 12.7891 16.0632Z" stroke="#FF5710" stroke-width="1.5" stroke-linecap="round" stroke-linejoin="round"/>
<path d="M17.8984 9.25537V12.6594" stroke="#FF5710" stroke-width="1.5" stroke-linecap="round" stroke-linejoin="round"/>
<path d="M14.4922 9.25537V12.6594" stroke="#FF5710" stroke-width="1.5" stroke-linecap="round" stroke-linejoin="round"/>
</svg>
