<svg width="28" height="28" viewBox="0 0 28 28" fill="none" xmlns="http://www.w3.org/2000/svg">
<path d="M24.8947 2.31055H3.11009C2.66959 2.31055 2.3125 2.66764 2.3125 3.10814V9.63989C2.3125 16.898 6.95747 23.3416 13.8434 25.636C13.9498 25.6714 14.0649 25.6714 14.1713 25.6359C21.0518 23.3415 25.6925 16.902 25.6925 9.64905V3.10834C25.6925 2.66773 25.3353 2.31055 24.8947 2.31055Z" stroke="white" stroke-width="1.3125" stroke-linejoin="round"/>
<path d="M7.646 11.2877C7.8571 11.5174 8.21416 11.5325 8.44389 11.3214C11.654 8.37174 16.6648 8.58358 19.6144 11.7937C19.8255 12.0234 20.1826 12.0385 20.4123 11.8274C20.642 11.6163 20.6571 11.2592 20.446 11.0295C17.0751 7.36099 11.3482 7.11887 7.67973 10.4898C7.44999 10.7009 7.4349 11.0579 7.646 11.2877Z" fill="white" stroke="white" stroke-width="0.221693"/>
<path d="M9.93337 13.7811C10.1445 14.0108 10.5015 14.0259 10.7313 13.8148C12.5655 12.1294 15.429 12.2504 17.1144 14.0847C17.3255 14.3144 17.6826 14.3295 17.9123 14.1184C18.142 13.9073 18.1571 13.5503 17.946 13.3205C15.8393 11.0278 12.2598 10.8765 9.9671 12.9832C9.73736 13.1943 9.72227 13.5513 9.93337 13.7811Z" fill="white" stroke="white" stroke-width="0.221693"/>
<path d="M12.2285 16.2764C12.4396 16.5062 12.7967 16.5213 13.0264 16.3102C13.4849 15.8889 14.201 15.9192 14.6222 16.3776C14.8333 16.6074 15.1904 16.6225 15.4201 16.4114C15.6499 16.2003 15.665 15.8432 15.4539 15.6135C14.6114 14.6966 13.1791 14.6361 12.2623 15.4786C12.0325 15.6897 12.0174 16.0467 12.2285 16.2764Z" fill="white" stroke="white" stroke-width="0.221693"/>
</svg>
