<svg width="32" height="32" viewBox="0 0 32 32" fill="none" xmlns="http://www.w3.org/2000/svg">
<path d="M28.4489 2.64014H3.55216C3.04873 2.64014 2.64062 3.04824 2.64062 3.55167V11.0165C2.64062 19.3115 7.94917 26.6756 15.8188 29.2978C15.9404 29.3383 16.0719 29.3383 16.1936 29.2977C24.057 26.6755 29.3606 19.3161 29.3606 11.027V3.5519C29.3606 3.04835 28.9524 2.64014 28.4489 2.64014Z" stroke="#FF5710" stroke-width="1.5" stroke-linejoin="round"/>
<path d="M8.7394 12.8985C8.98066 13.161 9.38872 13.1783 9.65128 12.937C13.3199 9.56596 19.0465 9.80806 22.4176 13.4767C22.6588 13.7393 23.0669 13.7565 23.3295 13.5153C23.592 13.274 23.6093 12.866 23.368 12.6034C19.5156 8.41081 12.9705 8.13411 8.77795 11.9866C8.51539 12.2278 8.49814 12.6359 8.7394 12.8985Z" fill="#FF5710" stroke="#FF5710" stroke-width="0.253363"/>
<path d="M11.3591 15.7499C11.6004 16.0124 12.0084 16.0297 12.271 15.7884C14.3673 13.8622 17.6398 14.0005 19.566 16.0968C19.8073 16.3594 20.2154 16.3767 20.4779 16.1354C20.7405 15.8941 20.7577 15.4861 20.5165 15.2235C18.1088 12.6033 14.0179 12.4303 11.3977 14.838C11.1351 15.0793 11.1179 15.4873 11.3591 15.7499Z" fill="#FF5710" stroke="#FF5710" stroke-width="0.253363"/>
<path d="M13.9788 18.6013C14.2201 18.8639 14.6282 18.8811 14.8907 18.6399C15.4146 18.1584 16.233 18.193 16.7145 18.717C16.9557 18.9795 17.3638 18.9968 17.6263 18.7555C17.8889 18.5143 17.9062 18.1062 17.6649 17.8436C16.7021 16.7958 15.0652 16.7266 14.0174 17.6894C13.7548 17.9307 13.7376 18.3388 13.9788 18.6013Z" fill="#FF5710" stroke="#FF5710" stroke-width="0.253363"/>
</svg>
