<svg width="32" height="33" viewBox="0 0 32 33" fill="none" xmlns="http://www.w3.org/2000/svg">
<path d="M20.6565 26.6279C22.5076 26.6279 24.0083 25.1272 24.0083 23.2761C24.0083 21.425 22.5076 19.9243 20.6565 19.9243C18.8053 19.9243 17.3047 21.425 17.3047 23.2761C17.3047 25.1272 18.8053 26.6279 20.6565 26.6279Z" stroke="#FF5710" stroke-width="1.5" stroke-linecap="round" stroke-linejoin="round"/>
<path d="M14.2109 27.007C13.8817 26.4399 13.6295 25.8316 13.4609 25.198L14.4863 23.9147C14.6307 23.7341 14.7 23.5063 14.7 23.2751V23.2751C14.7 23.0439 14.6308 22.8162 14.4865 22.6356L13.4617 21.3522C13.6299 20.7185 13.8816 20.11 14.2101 19.5426L15.8427 19.3592C16.0723 19.3334 16.282 19.2214 16.4453 19.058V19.058C16.6087 18.8947 16.7207 18.685 16.7465 18.4554L16.9299 16.8236C17.4965 16.4966 18.104 16.2464 18.7366 16.0796L20.0198 17.105C20.2005 17.2493 20.4283 17.3186 20.6595 17.3186V17.3186C20.8907 17.3186 21.1184 17.2494 21.299 17.1052L22.5823 16.0803C23.216 16.2486 23.8246 16.5003 24.392 16.8288L24.5754 18.4614C24.6012 18.6909 24.7132 18.9006 24.8766 19.064V19.064C25.0399 19.2273 25.2496 19.3394 25.4792 19.3652L27.111 19.5485C27.4402 20.1155 27.6924 20.7239 27.861 21.3575L26.8356 22.6407C26.6912 22.8214 26.6219 23.0492 26.6219 23.2804V23.2804C26.6219 23.5116 26.6911 23.7393 26.8354 23.9199L27.8602 25.2032C27.6931 25.8367 27.4427 26.4453 27.1155 27.0129L25.4829 27.1963C25.2534 27.2221 25.0436 27.3341 24.8803 27.4975V27.4975C24.7169 27.6608 24.6049 27.8705 24.5791 28.1001L24.3957 29.7319C23.8287 30.0611 23.2204 30.3133 22.5868 30.4818L21.3035 29.4564C21.1229 29.3121 20.8951 29.2428 20.6638 29.2428V29.2428C20.4327 29.2428 20.205 29.312 20.0244 29.4563L18.741 30.4811C18.1075 30.314 17.499 30.0636 16.9314 29.7364L16.7481 28.1051C16.7223 27.8747 16.6098 27.6642 16.4459 27.5003V27.5003C16.2831 27.3374 16.0744 27.2252 15.8457 27.1985L14.2109 27.007Z" stroke="#FF5710" stroke-width="1.5" stroke-linecap="round" stroke-linejoin="round"/>
<path d="M11.1955 13.1279C13.0467 13.1279 14.5473 11.6272 14.5473 9.7761C14.5473 7.92496 13.0467 6.42432 11.1955 6.42432C9.34439 6.42432 7.84375 7.92496 7.84375 9.7761C7.84375 11.6272 9.34439 13.1279 11.1955 13.1279Z" stroke="#FF5710" stroke-width="1.5" stroke-linecap="round" stroke-linejoin="round"/>
<path d="M4.74994 13.507C4.42075 12.9399 4.16855 12.3316 4 11.698L5.02539 10.4147C5.16976 10.2341 5.23903 10.0063 5.23904 9.77505V9.77505C5.23904 9.54388 5.16983 9.31622 5.02557 9.13558L4.00074 7.85225C4.16901 7.21854 4.42069 6.61 4.74919 6.04256L6.38176 5.8592C6.61133 5.83341 6.82105 5.72136 6.9844 5.55802V5.55802C7.14774 5.39468 7.25979 5.18497 7.28558 4.95542L7.46893 3.32357C8.03555 2.99663 8.6431 2.74645 9.27564 2.57959L10.5589 3.60498C10.7396 3.74935 10.9673 3.81862 11.1986 3.81863V3.81863C11.4298 3.81863 11.6574 3.74942 11.8381 3.60516L13.1214 2.58033C13.7551 2.7486 14.3637 3.00028 14.9311 3.32878L15.1144 4.96135C15.1402 5.19092 15.2523 5.40064 15.4156 5.56399V5.56399C15.579 5.72733 15.7887 5.83938 16.0182 5.86517L17.6501 6.04852C17.9793 6.61553 18.2315 7.22386 18.4 7.85746L17.3746 9.14073C17.2303 9.3214 17.161 9.54916 17.161 9.78042V9.78042C17.161 10.0116 17.2302 10.2393 17.3744 10.4199L18.3993 11.7032C18.2322 12.3367 17.9818 12.9453 17.6545 13.5129L16.022 13.6963C15.7924 13.7221 15.5827 13.8341 15.4193 13.9975V13.9975C15.256 14.1608 15.144 14.3705 15.1182 14.6001L14.9348 16.2319C14.3678 16.5611 13.7595 16.8133 13.1259 16.9818L11.8426 15.9564C11.6619 15.8121 11.4342 15.7428 11.2029 15.7428V15.7428C10.9717 15.7428 10.7441 15.812 10.5634 15.9563L9.2801 16.9811C8.64659 16.814 8.03805 16.5636 7.47042 16.2364L7.2872 14.6051C7.26132 14.3747 7.14887 14.1642 6.98498 14.0003V14.0003C6.82217 13.8374 6.61345 13.7252 6.38473 13.6985L4.74994 13.507Z" stroke="#FF5710" stroke-width="1.5" stroke-linecap="round" stroke-linejoin="round"/>
</svg>
