<svg width="32" height="32" viewBox="0 0 32 32" fill="none" xmlns="http://www.w3.org/2000/svg">
<path d="M28.4489 2.64014H3.55216C3.04873 2.64014 2.64062 3.04824 2.64062 3.55167V11.0165C2.64062 19.3115 7.94917 26.6756 15.8188 29.2978C15.9404 29.3383 16.0719 29.3383 16.1936 29.2977C24.057 26.6755 29.3606 19.3161 29.3606 11.027V3.5519C29.3606 3.04835 28.9524 2.64014 28.4489 2.64014Z" stroke="#FF5710" stroke-width="1.5" stroke-linejoin="round"/>
<path d="M11.6392 12.307C8.64087 15.6647 9.91554 23.12 15.8631 23.12C21.8107 23.12 23.8207 17.2344 19.8832 12.9801C15.9508 8.72318 17.3752 6 17.3752 6C10.4729 10.5138 16.6836 15.7521 14.1421 16.3763C13.4222 16.5536 12.6868 16.1605 12.3591 15.4951C12.0443 14.8555 11.714 13.8356 11.6392 12.3044V12.307Z" stroke="#FF5710" stroke-width="1.5" stroke-linecap="round" stroke-linejoin="round"/>
</svg>
