<svg width="28" height="28" viewBox="0 0 28 28" fill="none" xmlns="http://www.w3.org/2000/svg">
<path d="M24.8947 2.30859H3.11009C2.66959 2.30859 2.3125 2.66569 2.3125 3.10618V9.63793C2.3125 16.896 6.95747 23.3397 13.8434 25.634C13.9498 25.6695 14.0649 25.6695 14.1713 25.634C21.0518 23.3395 25.6925 16.9001 25.6925 9.6471V3.10639C25.6925 2.66578 25.3353 2.30859 24.8947 2.30859Z" stroke="white" stroke-width="1.3125" stroke-linejoin="round"/>
<path d="M10.1862 10.7667C7.56272 13.7047 8.67805 20.2281 13.8822 20.2281C19.0863 20.2281 20.8451 15.0781 17.3998 11.3556C13.9589 7.63083 15.2052 5.24805 15.2052 5.24805C9.16573 9.19762 14.6001 13.7811 12.3763 14.3273C11.7463 14.4824 11.1029 14.1385 10.8161 13.5563C10.5407 12.9966 10.2517 12.1042 10.1862 10.7644V10.7667Z" stroke="white" stroke-width="1.3125" stroke-linecap="round" stroke-linejoin="round"/>
</svg>
