<svg width="28" height="28" viewBox="0 0 28 28" fill="none" xmlns="http://www.w3.org/2000/svg">
<path d="M17.5 15.9775V4.375C17.5 3.44674 17.1313 2.5565 16.4749 1.90013C15.8185 1.24375 14.9283 0.875 14 0.875C13.0717 0.875 12.1815 1.24375 11.5251 1.90013C10.8687 2.5565 10.5 3.44674 10.5 4.375V15.9775C9.42989 16.7226 8.62551 17.7898 8.20393 19.0238C7.78236 20.2577 7.76559 21.594 8.15608 22.8382C8.54656 24.0823 9.32391 25.1693 10.375 25.9411C11.4261 26.7128 12.696 27.129 14 27.129C15.304 27.129 16.5739 26.7128 17.625 25.9411C18.6761 25.1693 19.4534 24.0823 19.8439 22.8382C20.2344 21.594 20.2176 20.2577 19.7961 19.0238C19.3745 17.7898 18.5701 16.7226 17.5 15.9775ZM14 2.625C14.4641 2.625 14.9092 2.80937 15.2374 3.13756C15.5656 3.46575 15.75 3.91087 15.75 4.375V11.375H12.25V4.375C12.25 3.91087 12.4344 3.46575 12.7626 3.13756C13.0908 2.80937 13.5359 2.625 14 2.625Z" fill="white"/>
</svg>
