<svg width="32" height="33" viewBox="0 0 32 33" fill="none" xmlns="http://www.w3.org/2000/svg">
<path d="M12.8047 6.98486L12.8047 20.4083" stroke="#FF5710" stroke-width="1.5" stroke-linecap="round"/>
<ellipse cx="12.8016" cy="23.785" rx="3.2" ry="3.20001" stroke="#FF5710" stroke-width="1.5"/>
<path d="M16.0016 14.8999V16.7384C16.0016 17.1028 16.211 17.4312 16.5228 17.6199C18.6079 18.8811 20.0016 21.1703 20.0016 23.7849C20.0016 27.7614 16.778 30.9849 12.8016 30.9849C8.82511 30.9849 5.60156 27.7614 5.60156 23.7849C5.60156 21.1703 6.99526 18.8811 9.0803 17.6199C9.39215 17.4312 9.60156 17.1028 9.60156 16.7384V14.8999" stroke="#FF5710" stroke-width="1.5"/>
<path d="M16.0016 16.6949V5.38506C16.0016 3.61775 14.5689 2.18506 12.8016 2.18506V2.18506C11.0343 2.18506 9.60156 3.61775 9.60156 5.38506L9.60156 16.6949" stroke="#FF5710" stroke-width="1.5"/>
<path d="M24.2332 11.4065C25.3113 11.4065 26.1852 10.5325 26.1852 9.45445C26.1852 8.37638 25.3113 7.50244 24.2332 7.50244C23.1552 7.50244 22.2812 8.37638 22.2812 9.45445C22.2812 10.5325 23.1552 11.4065 24.2332 11.4065Z" stroke="#FF5710" stroke-linecap="round" stroke-linejoin="round"/>
<path d="M24.2344 4.09961V5.72628" stroke="#FF5710" stroke-width="1.5" stroke-linecap="round" stroke-linejoin="round"/>
<path d="M18.9531 9.45947H20.5798" stroke="#FF5710" stroke-width="1.5" stroke-linecap="round" stroke-linejoin="round"/>
<path d="M24.2344 14.8093V13.1826" stroke="#FF5710" stroke-width="1.5" stroke-linecap="round" stroke-linejoin="round"/>
<path d="M29.5876 9.45459H27.9609" stroke="#FF5710" stroke-width="1.5" stroke-linecap="round" stroke-linejoin="round"/>
<path d="M28.0312 5.63965L26.881 6.78988" stroke="#FF5710" stroke-width="1.5" stroke-linecap="round" stroke-linejoin="round"/>
<path d="M20.5078 5.7002L21.658 6.85043" stroke="#FF5710" stroke-width="1.5" stroke-linecap="round" stroke-linejoin="round"/>
<path d="M20.4591 13.2127L21.6094 12.0625" stroke="#FF5710" stroke-width="1.5" stroke-linecap="round" stroke-linejoin="round"/>
<path d="M28.0252 13.2127L26.875 12.0625" stroke="#FF5710" stroke-width="1.5" stroke-linecap="round" stroke-linejoin="round"/>
</svg>
