<svg width="28" height="28" viewBox="0 0 28 28" fill="none" xmlns="http://www.w3.org/2000/svg">
<g clip-path="url(#clip0_9350_813)">
<path d="M2.625 21.9884L10.5031 14.1006C11.8372 12.7649 13.8907 13.9586 14.2111 14.2794C14.542 14.6107 14.647 15.268 14.479 15.6466C14.3319 15.9779 14.2794 16.3565 14.605 16.6773L15.5031 17.5765C15.8235 17.8973 16.3487 17.8973 16.6691 17.5765L19.2741 14.9683C19.5945 14.6475 19.5945 14.1216 19.2741 13.8009L18.376 12.9016C18.0557 12.5809 17.7195 12.6335 17.3676 12.7649C17.0157 12.8964 16.459 12.9385 15.9076 12.3863C15.2248 11.7027 15.855 10.2724 15.1302 9.55195L11.8057 6.22328C9.41596 3.8359 5.54517 4.11986 2.6355 4.11986C2.63025 4.43012 2.6355 5.78156 2.6355 5.78156C3.98529 5.91829 6.00735 6.33371 8.00315 8.33196C9.02205 9.35212 8.78571 10.5563 8.40231 10.9402L2.625 16.7299" stroke="white" stroke-width="1.3125" stroke-linejoin="round"/>
<path d="M10.5452 14.0726L7.90625 11.4336" stroke="white" stroke-width="1.3125" stroke-linejoin="round"/>
<path d="M17.9083 8.07006L23.6185 4.76953L21.5521 10.6126L26.8365 11.7233L22.2409 15.5344L26.6209 20.9511L19.7118 19.8141L18.0713 24.6938L14.2645 20.53L11.4777 22.7619L10.8047 18.6297" stroke="white" stroke-width="1.3125" stroke-linejoin="round"/>
</g>
<defs>
<clipPath id="clip0_9350_813">
<rect width="28" height="28" fill="white"/>
</clipPath>
</defs>
</svg>
