<svg width="14" height="14" viewBox="0 0 14 14" fill="none" xmlns="http://www.w3.org/2000/svg">
<g clip-path="url(#clip0_9101_861)">
<path d="M1.3125 10.9962L5.25157 7.05225C5.91859 6.38441 6.94537 6.98126 7.10556 7.14165C7.271 7.30729 7.32352 7.63595 7.23949 7.82526C7.16596 7.9909 7.1397 8.18021 7.30252 8.3406L7.75157 8.7902C7.91176 8.95059 8.17436 8.95059 8.33455 8.7902L9.63707 7.48608C9.79726 7.3257 9.79726 7.06277 9.63707 6.90238L9.18802 6.45278C9.02783 6.29239 8.85976 6.31868 8.68382 6.38441C8.50787 6.45015 8.22951 6.47118 7.95378 6.19511C7.61239 5.8533 7.92752 5.13814 7.56512 4.77793L5.90283 3.11359C4.70798 1.9199 2.77258 2.06188 1.31775 2.06188C1.31513 2.21701 1.31775 2.89274 1.31775 2.89274C1.99265 2.9611 3.00368 3.16881 4.00157 4.16793C4.51103 4.67801 4.39285 5.28012 4.20115 5.47206L1.3125 8.36689" stroke="#FF5710" stroke-width="0.65625" stroke-linejoin="round"/>
<path d="M5.27261 7.03726L3.95312 5.71777" stroke="#FF5710" stroke-width="0.65625" stroke-linejoin="round"/>
<path d="M8.95806 4.03601L11.8132 2.38574L10.78 5.30726L13.4221 5.86262L11.1244 7.76819L13.3143 10.4765L9.85981 9.908L9.03956 12.3479L7.13615 10.266L5.74276 11.3819L5.40625 9.3158" stroke="#FF5710" stroke-width="0.65625" stroke-linejoin="round"/>
</g>
<defs>
<clipPath id="clip0_9101_861">
<rect width="14" height="14" fill="white"/>
</clipPath>
</defs>
</svg>
