<svg width="32" height="32" viewBox="0 0 32 32" fill="none" xmlns="http://www.w3.org/2000/svg">
<g clip-path="url(#clip0_9055_1989)">
<path d="M3 25.1334L12.0036 16.1187C13.5282 14.5922 15.8751 15.9565 16.2413 16.3231C16.6194 16.7017 16.7395 17.4529 16.5474 17.8856C16.3793 18.2642 16.3193 18.6969 16.6915 19.0635L17.7179 20.0912C18.084 20.4578 18.6843 20.4578 19.0504 20.0912L22.0276 17.1103C22.3937 16.7437 22.3937 16.1428 22.0276 15.7762L21.0012 14.7485C20.635 14.3819 20.2509 14.442 19.8487 14.5922C19.4466 14.7425 18.8103 14.7906 18.1801 14.1595C17.3997 13.3783 18.12 11.7436 17.2917 10.9203L13.4922 7.11609C10.7611 4.38765 6.33733 4.71218 3.012 4.71218C3.006 5.06676 3.012 6.61127 3.012 6.61127C4.55462 6.76752 6.86554 7.24229 9.14645 9.52601C10.3109 10.6919 10.0408 12.0681 9.60264 12.5069L3 19.1236" stroke="#FF5710" stroke-width="1.5" stroke-linejoin="round"/>
<path d="M12.0472 16.0853L9.03125 13.0693" stroke="#FF5710" stroke-width="1.5" stroke-linejoin="round"/>
<path d="M20.47 9.22614L26.996 5.4541L24.6343 12.1319L30.6736 13.4012L25.4215 17.7568L30.4272 23.9473L22.5311 22.6478L20.6563 28.2247L16.3056 23.466L13.1207 26.0168L12.3516 21.2942" stroke="#FF5710" stroke-width="1.5" stroke-linejoin="round"/>
</g>
<defs>
<clipPath id="clip0_9055_1989">
<rect width="32" height="32" fill="white"/>
</clipPath>
</defs>
</svg>
