<svg width="28" height="28" viewBox="0 0 28 28" fill="none" xmlns="http://www.w3.org/2000/svg">
<path d="M25.375 22.75H24.5V14.875C24.5 14.8695 24.5 14.8652 24.5 14.8597C24.5 14.8542 24.5 14.828 24.5 14.8127C24.5 14.7973 24.5 14.782 24.5 14.7678C24.5005 14.7624 24.5005 14.7569 24.5 14.7514L22.8594 3.25282C22.7979 2.83462 22.5878 2.45257 22.2676 2.1766C21.9475 1.90062 21.5386 1.74918 21.1159 1.75H19.1341C18.7133 1.75181 18.307 1.90443 17.9892 2.18017C17.6713 2.45591 17.4628 2.83648 17.4016 3.25282L16.1372 12.1023L11.9 8.925C11.77 8.82751 11.6154 8.76813 11.4536 8.75354C11.2917 8.73895 11.129 8.76971 10.9837 8.84238C10.8383 8.91505 10.7161 9.02676 10.6307 9.16499C10.5452 9.30322 10.5 9.46251 10.5 9.625V13.125L4.9 8.925C4.77 8.82751 4.61542 8.76813 4.45358 8.75354C4.29174 8.73895 4.12903 8.76971 3.98369 8.84238C3.83835 8.91505 3.71611 9.02676 3.63068 9.16499C3.54525 9.30322 3.5 9.46251 3.5 9.625V22.75H2.625C2.39294 22.75 2.17038 22.8422 2.00628 23.0063C1.84219 23.1704 1.75 23.3929 1.75 23.625C1.75 23.8571 1.84219 24.0796 2.00628 24.2437C2.17038 24.4078 2.39294 24.5 2.625 24.5H25.375C25.6071 24.5 25.8296 24.4078 25.9937 24.2437C26.1578 24.0796 26.25 23.8571 26.25 23.625C26.25 23.3929 26.1578 23.1704 25.9937 23.0063C25.8296 22.8422 25.6071 22.75 25.375 22.75ZM11.8125 20.125H8.75C8.51794 20.125 8.29538 20.0328 8.13128 19.8687C7.96719 19.7046 7.875 19.4821 7.875 19.25C7.875 19.0179 7.96719 18.7954 8.13128 18.6313C8.29538 18.4672 8.51794 18.375 8.75 18.375H11.8125C12.0446 18.375 12.2671 18.4672 12.4312 18.6313C12.5953 18.7954 12.6875 19.0179 12.6875 19.25C12.6875 19.4821 12.5953 19.7046 12.4312 19.8687C12.2671 20.0328 12.0446 20.125 11.8125 20.125ZM19.25 20.125H16.1875C15.9554 20.125 15.7329 20.0328 15.5688 19.8687C15.4047 19.7046 15.3125 19.4821 15.3125 19.25C15.3125 19.0179 15.4047 18.7954 15.5688 18.6313C15.7329 18.4672 15.9554 18.375 16.1875 18.375H19.25C19.4821 18.375 19.7046 18.4672 19.8687 18.6313C20.0328 18.7954 20.125 19.0179 20.125 19.25C20.125 19.4821 20.0328 19.7046 19.8687 19.8687C19.7046 20.0328 19.4821 20.125 19.25 20.125ZM18.667 14L17.7341 13.3L19.1341 3.5H21.1159L22.6166 14H18.667Z" fill="white"/>
</svg>
