<svg width="32" height="32" viewBox="0 0 32 32" fill="none" xmlns="http://www.w3.org/2000/svg">
<path d="M19.8127 26.0483C21.6639 26.0483 23.1645 24.5477 23.1645 22.6965C23.1645 20.8454 21.6639 19.3447 19.8127 19.3447C17.9616 19.3447 16.4609 20.8454 16.4609 22.6965C16.4609 24.5477 17.9616 26.0483 19.8127 26.0483Z" stroke="#FF5710" stroke-width="1.5" stroke-linecap="round" stroke-linejoin="round"/>
<path d="M13.3671 26.4274C13.0379 25.8604 12.7857 25.252 12.6172 24.6184L13.6426 23.3352C13.7869 23.1545 13.8562 22.9267 13.8562 22.6955V22.6955C13.8562 22.4643 13.787 22.2366 13.6428 22.056L12.6179 20.7727C12.7862 20.139 13.0379 19.5304 13.3664 18.963L14.9989 18.7796C15.2285 18.7538 15.4382 18.6418 15.6016 18.4784V18.4784C15.7649 18.3151 15.877 18.1054 15.9028 17.8758L16.0861 16.244C16.6527 15.917 17.2603 15.6669 17.8928 15.5L19.1761 16.5254C19.3568 16.6698 19.5845 16.739 19.8158 16.739V16.739C20.047 16.739 20.2746 16.6698 20.4553 16.5256L21.7386 15.5007C22.3723 15.669 22.9808 15.9207 23.5483 16.2492L23.7316 17.8818C23.7574 18.1113 23.8695 18.3211 24.0328 18.4844V18.4844C24.1962 18.6477 24.4059 18.7598 24.6354 18.7856L26.2673 18.9689C26.5965 19.5359 26.8487 20.1443 27.0172 20.7779L25.9918 22.0611C25.8474 22.2418 25.7782 22.4696 25.7782 22.7008V22.7008C25.7782 22.932 25.8474 23.1597 25.9916 23.3403L27.0165 24.6236C26.8494 25.2572 26.5989 25.8657 26.2717 26.4333L24.6392 26.6167C24.4096 26.6425 24.1999 26.7545 24.0365 26.9179V26.9179C23.8732 27.0812 23.7611 27.2909 23.7353 27.5205L23.552 29.1523C22.985 29.4815 22.3767 29.7337 21.7431 29.9022L20.4598 28.8769C20.2791 28.7325 20.0514 28.6632 19.8201 28.6632V28.6632C19.5889 28.6632 19.3613 28.7324 19.1806 28.8767L17.8973 29.9015C17.2638 29.7344 16.6552 29.484 16.0876 29.1568L15.9044 27.5255C15.8785 27.2951 15.7661 27.0846 15.6022 26.9207V26.9207C15.4394 26.7578 15.2306 26.6457 15.0019 26.6189L13.3671 26.4274Z" stroke="#FF5710" stroke-width="1.5" stroke-linecap="round" stroke-linejoin="round"/>
<path d="M10.3518 12.5483C12.2029 12.5483 13.7036 11.0477 13.7036 9.19651C13.7036 7.34537 12.2029 5.84473 10.3518 5.84473C8.50064 5.84473 7 7.34537 7 9.19651C7 11.0477 8.50064 12.5483 10.3518 12.5483Z" stroke="#FF5710" stroke-width="1.5" stroke-linecap="round" stroke-linejoin="round"/>
<path d="M3.90619 12.9274C3.577 12.3604 3.3248 11.752 3.15625 11.1184L4.18164 9.83515C4.32601 9.65448 4.39528 9.42673 4.39529 9.19546V9.19546C4.39529 8.96429 4.32608 8.73663 4.18182 8.55599L3.15699 7.27266C3.32526 6.63895 3.57694 6.03041 3.90544 5.46297L5.53801 5.27961C5.76758 5.25382 5.9773 5.14177 6.14065 4.97843V4.97843C6.30399 4.81509 6.41604 4.60538 6.44183 4.37583L6.62518 2.74398C7.1918 2.41704 7.79935 2.16686 8.43189 2L9.71516 3.02539C9.89583 3.16976 10.1236 3.23903 10.3548 3.23904V3.23904C10.586 3.23904 10.8137 3.16983 10.9943 3.02557L12.2776 2.00074C12.9114 2.16901 13.5199 2.42069 14.0873 2.74919L14.2707 4.38176C14.2965 4.61133 14.4085 4.82105 14.5719 4.9844V4.9844C14.7352 5.14774 14.9449 5.25979 15.1745 5.28558L16.8063 5.46893C17.1355 6.03594 17.3877 6.64427 17.5563 7.27787L16.5309 8.56114C16.3865 8.74181 16.3172 8.96957 16.3172 9.20083V9.20083C16.3172 9.432 16.3864 9.65967 16.5307 9.84031L17.5555 11.1236C17.3884 11.7572 17.138 12.3657 16.8108 12.9333L15.1782 13.1167C14.9487 13.1425 14.7389 13.2545 14.5756 13.4179V13.4179C14.4123 13.5812 14.3002 13.7909 14.2744 14.0205L14.0911 15.6523C13.5241 15.9815 12.9157 16.2337 12.2821 16.4022L10.9988 15.3769C10.8182 15.2325 10.5904 15.1632 10.3592 15.1632V15.1632C10.128 15.1632 9.90032 15.2324 9.71968 15.3767L8.43635 16.4015C7.80284 16.2344 7.1943 15.984 6.62667 15.6568L6.44345 14.0255C6.41757 13.7951 6.30512 13.5846 6.14123 13.4207V13.4207C5.97842 13.2578 5.7697 13.1457 5.54098 13.1189L3.90619 12.9274Z" stroke="#FF5710" stroke-width="1.5" stroke-linecap="round" stroke-linejoin="round"/>
<path d="M20.8516 8.88965L22.6979 4.01043" stroke="#FF5710" stroke-width="1.5" stroke-linecap="round"/>
<path d="M23.6562 12.6943L28.8688 13.0776" stroke="#FF5710" stroke-width="1.5" stroke-linecap="round"/>
<path d="M22.375 10.8271L28.8326 6.89894" stroke="#FF5710" stroke-width="1.5" stroke-linecap="round"/>
</svg>
