<svg width="28" height="28" viewBox="0 0 28 28" fill="none" xmlns="http://www.w3.org/2000/svg">
<path d="M17.3391 22.7914C18.9588 22.7914 20.2719 21.4783 20.2719 19.8586C20.2719 18.2388 18.9588 16.9258 17.3391 16.9258C15.7193 16.9258 14.4062 18.2388 14.4062 19.8586C14.4062 21.4783 15.7193 22.7914 17.3391 22.7914Z" stroke="white" stroke-width="1.3125" stroke-linecap="round" stroke-linejoin="round"/>
<path d="M11.6953 23.1239C11.4072 22.6278 11.1865 22.0955 11.0391 21.5411L11.9363 20.4183C12.0626 20.2602 12.1232 20.0609 12.1232 19.8585V19.8585C12.1232 19.6563 12.0627 19.457 11.9364 19.299L11.0397 18.1761C11.1869 17.6216 11.4072 17.0891 11.6946 16.5926L13.1231 16.4322C13.324 16.4096 13.5075 16.3116 13.6504 16.1686V16.1686C13.7933 16.0257 13.8914 15.8422 13.9139 15.6413L14.0744 14.2135C14.5702 13.9274 15.1018 13.7085 15.6552 13.5625L16.7781 14.4597C16.9362 14.586 17.1355 14.6467 17.3378 14.6467V14.6467C17.5401 14.6467 17.7393 14.5861 17.8974 14.4599L19.0203 13.5632C19.5748 13.7104 20.1073 13.9306 20.6038 14.218L20.7642 15.6465C20.7868 15.8474 20.8848 16.0309 21.0277 16.1738V16.1738C21.1707 16.3168 21.3542 16.4148 21.555 16.4374L22.9829 16.5978C23.2709 17.0939 23.4916 17.6262 23.6391 18.1806L22.7419 19.3035C22.6155 19.4616 22.5549 19.6609 22.5549 19.8632V19.8632C22.5549 20.0655 22.6155 20.2647 22.7417 20.4228L23.6384 21.5457C23.4922 22.1 23.2731 22.6325 22.9868 23.1292L21.5583 23.2896C21.3574 23.3122 21.1739 23.4102 21.031 23.5531V23.5531C20.8881 23.6961 20.79 23.8795 20.7675 24.0804L20.607 25.5083C20.1109 25.7963 19.5786 26.017 19.0242 26.1645L17.9013 25.2672C17.7432 25.1409 17.544 25.0803 17.3416 25.0803V25.0803C17.1393 25.0803 16.9401 25.1409 16.7821 25.2671L15.6592 26.1638C15.1048 26.0176 14.5724 25.7985 14.0757 25.5122L13.9154 24.0848C13.8927 23.8832 13.7943 23.6991 13.6509 23.5556V23.5556C13.5085 23.4131 13.3258 23.3149 13.1257 23.2915L11.6953 23.1239Z" stroke="white" stroke-width="1.3125" stroke-linecap="round" stroke-linejoin="round"/>
<path d="M9.05781 10.9789C10.6776 10.9789 11.9906 9.66584 11.9906 8.04609C11.9906 6.42635 10.6776 5.11328 9.05781 5.11328C7.43806 5.11328 6.125 6.42635 6.125 8.04609C6.125 9.66584 7.43806 10.9789 9.05781 10.9789Z" stroke="white" stroke-width="1.3125" stroke-linecap="round" stroke-linejoin="round"/>
<path d="M3.42182 11.3114C3.13378 10.8153 2.91311 10.283 2.76562 9.72862L3.66285 8.60576C3.78916 8.44767 3.84978 8.24838 3.84978 8.04603V8.04603C3.84979 7.84375 3.78922 7.64455 3.663 7.48649L2.76628 6.36358C2.91351 5.80908 3.13373 5.2766 3.42117 4.7801L4.84967 4.61966C5.05053 4.5971 5.23405 4.49905 5.37697 4.35612V4.35612C5.5199 4.2132 5.61794 4.0297 5.64051 3.82885L5.80094 2.40098C6.29673 2.11491 6.82834 1.896 7.38181 1.75L8.50467 2.64722C8.66276 2.77354 8.86204 2.83416 9.0644 2.83416V2.83416C9.26667 2.83416 9.46588 2.7736 9.62394 2.64738L10.7468 1.75065C11.3013 1.89788 11.8338 2.1181 12.3303 2.40554L12.4908 3.83404C12.5133 4.03491 12.6114 4.21842 12.7543 4.36135V4.36135C12.8972 4.50427 13.0807 4.60231 13.2816 4.62488L14.7094 4.78532C14.9975 5.28145 15.2182 5.81373 15.3656 6.36814L14.4684 7.491C14.3421 7.64909 14.2815 7.84837 14.2815 8.05073V8.05073C14.2815 8.253 14.342 8.45221 14.4683 8.61027L15.365 9.73318C15.2188 10.2875 14.9997 10.82 14.7134 11.3167L13.2849 11.4771C13.084 11.4997 12.9005 11.5977 12.7575 11.7406V11.7406C12.6146 11.8836 12.5166 12.067 12.494 12.2679L12.3336 13.6958C11.8375 13.9838 11.3052 14.2045 10.7508 14.352L9.6279 13.4547C9.46981 13.3284 9.27053 13.2678 9.06817 13.2678V13.2678C8.8659 13.2678 8.66669 13.3284 8.50863 13.4546L7.38572 14.3513C6.83139 14.2051 6.29892 13.986 5.80224 13.6997L5.64192 12.2723C5.61928 12.0707 5.52088 11.8866 5.37748 11.7431V11.7431C5.23503 11.6006 5.05239 11.5024 4.85226 11.479L3.42182 11.3114Z" stroke="white" stroke-width="1.3125" stroke-linecap="round" stroke-linejoin="round"/>
<path d="M18.2422 7.7793L19.8577 3.50998" stroke="white" stroke-width="1.3125" stroke-linecap="round"/>
<path d="M20.7031 11.1094L25.2641 11.4447" stroke="white" stroke-width="1.3125" stroke-linecap="round"/>
<path d="M19.5781 9.47461L25.2285 6.03742" stroke="white" stroke-width="1.3125" stroke-linecap="round"/>
</svg>
