<svg width="28" height="28" viewBox="0 0 28 28" fill="none" xmlns="http://www.w3.org/2000/svg">
<g clip-path="url(#clip0_9350_836)">
<path d="M18.725 10.2195L25.3968 13.2008C25.7276 13.3486 25.7286 13.8178 25.3985 13.967L14.173 19.0419C14.063 19.0916 13.937 19.0916 13.827 19.0419L2.60148 13.967C2.27138 13.8178 2.27241 13.3486 2.60315 13.2008L9.275 10.2195" stroke="white" stroke-width="1.3125" stroke-linecap="round"/>
<path d="M18.725 16.8699L25.3968 19.8512C25.7276 19.999 25.7286 20.4682 25.3985 20.6174L14.173 25.6923C14.063 25.742 13.937 25.742 13.827 25.6923L2.60148 20.6174C2.27138 20.4682 2.27241 19.999 2.60315 19.8512L9.275 16.8699" stroke="white" stroke-width="1.3125"/>
<path d="M7.67485 6.47707C7.89363 6.25829 8.24803 6.25829 8.46681 6.47707C11.5238 9.53404 16.4973 9.53404 19.5542 6.47707C19.773 6.25829 20.1274 6.25829 20.3462 6.47707C20.565 6.69585 20.565 7.05025 20.3462 7.26903C16.8527 10.7626 11.1684 10.7626 7.67485 7.26903C7.45608 7.05025 7.45608 6.69585 7.67485 6.47707Z" fill="white"/>
<path d="M10.0438 4.10207C10.2626 3.88329 10.617 3.88329 10.8358 4.10207C12.5825 5.84884 15.4247 5.84884 17.1714 4.10207C17.3902 3.88329 17.7446 3.88329 17.9634 4.10207C18.1822 4.32085 18.1822 4.67525 17.9634 4.89403C15.7801 7.07737 12.2271 7.07737 10.0438 4.89403C9.82502 4.67525 9.82502 4.32085 10.0438 4.10207Z" fill="white"/>
<path d="M12.4284 1.72511C12.6471 1.50633 13.0016 1.50633 13.2203 1.72511C13.6569 2.16168 14.3677 2.16168 14.8042 1.72511C15.023 1.50633 15.3774 1.50633 15.5962 1.72511C15.815 1.94389 15.815 2.2983 15.5962 2.51707C14.7231 3.39021 13.3015 3.39021 12.4284 2.51707C12.2096 2.2983 12.2096 1.94389 12.4284 1.72511Z" fill="white"/>
</g>
<defs>
<clipPath id="clip0_9350_836">
<rect width="28" height="28.0001" fill="white"/>
</clipPath>
</defs>
</svg>
