<svg width="32" height="32" viewBox="0 0 32 32" fill="none" xmlns="http://www.w3.org/2000/svg">
<g clip-path="url(#clip0_9055_1978)">
<path d="M21.4 11.6767L29.025 15.0839C29.403 15.2528 29.4041 15.7889 29.0269 15.9595L16.1977 21.7594C16.072 21.8162 15.928 21.8162 15.8023 21.7594L2.97312 15.9595C2.59587 15.7889 2.59703 15.2528 2.97503 15.0839L10.6 11.6767" stroke="#FF5710" stroke-width="1.5" stroke-linecap="round"/>
<path d="M21.4 19.2763L29.025 22.6835C29.403 22.8524 29.4041 23.3885 29.0269 23.5591L16.1977 29.359C16.072 29.4158 15.928 29.4158 15.8023 29.359L2.97312 23.5591C2.59587 23.3885 2.59703 22.8524 2.97503 22.6835L10.6 19.2763" stroke="#FF5710" stroke-width="1.5"/>
<path d="M8.76903 7.39999C9.01906 7.14996 9.42409 7.14996 9.67413 7.39999C13.1678 10.8937 18.8518 10.8937 22.3455 7.39999C22.5955 7.14996 23.0005 7.14996 23.2506 7.39999C23.5006 7.65002 23.5006 8.05505 23.2506 8.30509C19.258 12.2977 12.7616 12.2977 8.76903 8.30509C8.519 8.05505 8.519 7.65002 8.76903 7.39999Z" fill="#FF5710"/>
<path d="M11.4887 4.68515C11.7387 4.43511 12.1437 4.43511 12.3938 4.68515C14.3901 6.68145 17.6382 6.68145 19.6345 4.68515C19.8846 4.43511 20.2896 4.43511 20.5396 4.68515C20.7897 4.93518 20.7897 5.34021 20.5396 5.59024C18.0444 8.08549 13.9839 8.08549 11.4887 5.59024C11.2386 5.34021 11.2386 4.93518 11.4887 4.68515Z" fill="#FF5710"/>
<path d="M14.2005 1.96933C14.4505 1.71929 14.8556 1.71929 15.1056 1.96933C15.6045 2.46826 16.4169 2.46826 16.9158 1.96933C17.1658 1.71929 17.5709 1.71929 17.8209 1.96933C18.0709 2.21936 18.0709 2.62439 17.8209 2.87442C16.823 3.8723 15.1984 3.8723 14.2005 2.87442C13.9505 2.62439 13.9505 2.21936 14.2005 1.96933Z" fill="#FF5710"/>
</g>
<defs>
<clipPath id="clip0_9055_1978">
<rect width="32" height="32.0001" fill="white"/>
</clipPath>
</defs>
</svg>
