<svg width="28" height="28" viewBox="0 0 28 28" fill="none" xmlns="http://www.w3.org/2000/svg">
<path d="M22.75 3.5H5.25C4.78587 3.5 4.34075 3.68437 4.01256 4.01256C3.68437 4.34075 3.5 4.78587 3.5 5.25V22.75C3.5 23.2141 3.68437 23.6592 4.01256 23.9874C4.34075 24.3156 4.78587 24.5 5.25 24.5H22.75C23.2141 24.5 23.6592 24.3156 23.9874 23.9874C24.3156 23.6592 24.5 23.2141 24.5 22.75V5.25C24.5 4.78587 24.3156 4.34075 23.9874 4.01256C23.6592 3.68437 23.2141 3.5 22.75 3.5ZM18.8125 6.125C19.0721 6.125 19.3258 6.20198 19.5417 6.3462C19.7575 6.49042 19.9258 6.6954 20.0251 6.93523C20.1244 7.17506 20.1504 7.43896 20.0998 7.69356C20.0491 7.94816 19.9241 8.18202 19.7406 8.36558C19.557 8.54913 19.3232 8.67414 19.0686 8.72478C18.814 8.77542 18.5501 8.74943 18.3102 8.65009C18.0704 8.55075 17.8654 8.38252 17.7212 8.16669C17.577 7.95085 17.5 7.69709 17.5 7.4375C17.5 7.0894 17.6383 6.75556 17.8844 6.50942C18.1306 6.26328 18.4644 6.125 18.8125 6.125ZM14 6.125C14.2596 6.125 14.5133 6.20198 14.7292 6.3462C14.945 6.49042 15.1133 6.6954 15.2126 6.93523C15.3119 7.17506 15.3379 7.43896 15.2873 7.69356C15.2366 7.94816 15.1116 8.18202 14.9281 8.36558C14.7445 8.54913 14.5107 8.67414 14.2561 8.72478C14.0015 8.77542 13.7376 8.74943 13.4977 8.65009C13.2579 8.55075 13.0529 8.38252 12.9087 8.16669C12.7645 7.95085 12.6875 7.69709 12.6875 7.4375C12.6875 7.0894 12.8258 6.75556 13.0719 6.50942C13.3181 6.26328 13.6519 6.125 14 6.125ZM9.1875 6.125C9.44709 6.125 9.70085 6.20198 9.91669 6.3462C10.1325 6.49042 10.3008 6.6954 10.4001 6.93523C10.4994 7.17506 10.5254 7.43896 10.4748 7.69356C10.4241 7.94816 10.2991 8.18202 10.1156 8.36558C9.93202 8.54913 9.69816 8.67414 9.44356 8.72478C9.18896 8.77542 8.92506 8.74943 8.68523 8.65009C8.4454 8.55075 8.24042 8.38252 8.0962 8.16669C7.95198 7.95085 7.875 7.69709 7.875 7.4375C7.875 7.0894 8.01328 6.75556 8.25942 6.50942C8.50556 6.26328 8.8394 6.125 9.1875 6.125ZM21 21H7V11.375H21V21Z" fill="white"/>
</svg>
