<svg width="32" height="32" viewBox="0 0 32 32" fill="none" xmlns="http://www.w3.org/2000/svg">
<path d="M20.7548 28H11.2458C11.2257 27.9876 11.2069 27.9661 11.1855 27.9635C9.98774 27.8132 8.77699 26.7005 8.80098 25.0358C8.83079 22.946 8.80875 20.8555 8.80681 18.765C8.80681 18.681 8.83792 18.5892 8.76403 18.4928C8.61107 18.6035 8.46135 18.7109 8.31292 18.8197C7.6006 19.3405 6.89282 19.8672 6.17468 20.3809C5.74884 20.6855 5.19467 20.5124 5.04041 20.0443C4.93023 19.7083 5.04625 19.4017 5.37745 19.1595C6.46181 18.3652 7.54486 17.5697 8.63116 16.7786C8.75172 16.6908 8.81329 16.6022 8.81264 16.4408C8.80551 15.0579 8.8094 13.6751 8.80681 12.2923C8.80681 12.2357 8.84246 12.1615 8.75301 12.1146C8.69079 12.1582 8.62468 12.2031 8.56051 12.2507C7.79634 12.8099 7.03218 13.3698 6.26736 13.929C6.14292 14.0202 6.01782 14.1087 5.86032 14.1341C5.5168 14.1882 5.20116 14.0221 5.06569 13.7122C4.91986 13.3789 5.02227 13.0306 5.34699 12.7923C6.44301 11.987 7.53968 11.1823 8.64023 10.3835C8.76533 10.293 8.81394 10.1986 8.81329 10.0423C8.80681 9.04167 8.79709 8.04102 8.81523 7.04102C8.84699 5.30143 9.96246 3.79102 11.599 3.2207C11.8803 3.12305 12.1772 3.09505 12.4585 3C14.8197 3 17.1809 3 19.5421 3C19.57 3.01367 19.5965 3.03516 19.6264 3.03971C21.7918 3.40625 23.1873 5.05664 23.1925 7.26237C23.1944 8.18945 23.197 9.11719 23.1892 10.0443C23.1879 10.2018 23.2378 10.2956 23.3642 10.3841C23.7421 10.6484 24.1109 10.9264 24.4829 11.1992C25.2147 11.735 25.9478 12.2682 26.6763 12.8086C26.9867 13.0391 27.0775 13.3841 26.9329 13.7148C26.7988 14.0228 26.4805 14.1895 26.137 14.1328C25.9704 14.1055 25.8421 14.0072 25.7112 13.9115C24.9405 13.347 24.1699 12.7819 23.3979 12.2188C23.3435 12.179 23.2994 12.1068 23.1925 12.1302C23.1925 12.2077 23.1925 12.2865 23.1925 12.3659C23.1925 13.6999 23.197 15.0345 23.1873 16.3685C23.186 16.5703 23.2476 16.6908 23.4096 16.8086C24.4862 17.5859 25.5543 18.3757 26.627 19.1582C26.8817 19.3444 27.0354 19.5788 26.988 19.9036C26.9038 20.4818 26.2952 20.7214 25.8026 20.3652C25.0079 19.7917 24.2217 19.207 23.4297 18.6309C23.3642 18.5833 23.3104 18.4941 23.1925 18.5195C23.1925 18.61 23.1925 18.6986 23.1925 18.7871C23.1925 20.9023 23.1964 23.0176 23.1905 25.1322C23.1866 26.5124 22.3181 27.6146 21.0063 27.9323C20.9227 27.9525 20.8248 27.9264 20.7548 27.9993V28ZM16 4.46484C15.4341 4.46484 14.8677 4.46354 14.3018 4.46549C14.1171 4.46615 13.8766 4.4056 13.7619 4.4987C13.6245 4.61003 13.7327 4.86393 13.7133 5.05469C13.7094 5.09505 13.7107 5.13607 13.7081 5.17643C13.6381 6.36654 12.8493 7.30794 11.7014 7.56315C11.2951 7.65365 10.8802 7.62956 10.4687 7.62305C10.3157 7.62109 10.2567 7.66016 10.2593 7.82552C10.2684 8.37044 10.2671 8.91602 10.26 9.46094C10.258 9.61979 10.2937 9.65365 10.4531 9.60612C11.7047 9.23828 12.9802 8.99935 14.2798 8.88477C15.6052 8.76823 16.9275 8.78711 18.249 8.9362C19.3671 9.06185 20.4664 9.28516 21.5455 9.60286C21.7024 9.64909 21.7413 9.62174 21.7387 9.45964C21.7309 8.91471 21.7296 8.36914 21.7393 7.82422C21.7426 7.65755 21.6816 7.61589 21.5293 7.62305C21.3116 7.63346 21.0925 7.62956 20.8747 7.62435C19.6082 7.59375 18.634 6.82487 18.3534 5.63346C18.2782 5.3138 18.275 4.98763 18.2892 4.66276C18.2964 4.49935 18.2406 4.45898 18.0844 4.46094C17.389 4.46875 16.6935 4.46419 15.998 4.46419L16 4.46484ZM18.3936 17.099C18.3936 16.3346 18.3884 15.5697 18.3975 14.8053C18.3994 14.6432 18.3417 14.5781 18.194 14.5384C16.7337 14.1419 15.2753 14.1354 13.8144 14.5384C13.655 14.5827 13.6012 14.6517 13.6025 14.8223C13.6096 16.3346 13.6102 17.8477 13.6025 19.3607C13.6012 19.5443 13.666 19.61 13.8313 19.6556C15.2928 20.0547 16.7512 20.0449 18.2108 19.6471C18.3521 19.6087 18.3981 19.5397 18.3968 19.3926C18.3897 18.6283 18.3936 17.8639 18.3936 17.099ZM11.1265 10.9388C11.1388 10.974 11.1408 11 11.1544 11.0163C11.7747 11.724 12.3969 12.4303 13.0159 13.1393C13.0911 13.2253 13.165 13.2096 13.2544 13.1829C15.0854 12.6367 16.9171 12.6354 18.7481 13.1855C18.8538 13.2174 18.9257 13.2077 19.0028 13.1191C19.5946 12.4401 20.1903 11.765 20.7878 11.0911C20.8838 10.9831 20.8993 10.9388 20.7315 10.8939C19.8078 10.6478 18.8719 10.4753 17.923 10.3743C16.4854 10.2207 15.0491 10.2402 13.6167 10.429C12.778 10.5391 11.9484 10.7012 11.1272 10.9401L11.1265 10.9388ZM15.9747 26.5352C17.4376 26.5352 18.8998 26.5384 20.3627 26.5339C21.1515 26.5312 21.7186 25.9622 21.7354 25.168C21.7413 24.8913 21.7303 24.6146 21.7393 24.3385C21.7452 24.1641 21.6894 24.1361 21.5267 24.1842C20.2998 24.5469 19.0482 24.7806 17.774 24.8958C16.1808 25.0404 14.5948 24.9876 13.0139 24.748C12.159 24.6185 11.3158 24.4323 10.4868 24.1868C10.304 24.1328 10.2548 24.1836 10.2606 24.3607C10.269 24.6042 10.2606 24.8483 10.2632 25.0924C10.2697 25.9779 10.8251 26.5339 11.7079 26.5345C13.13 26.5358 14.5527 26.5345 15.9747 26.5345V26.5352ZM20.607 22.9238C20.0315 22.2689 19.4857 21.6491 18.9426 21.0273C18.8765 20.9512 18.8129 20.9915 18.7455 21.0111C16.9145 21.5488 15.0835 21.5527 13.2531 21.0065C13.1695 20.9818 13.1073 20.9681 13.0392 21.0462C12.5026 21.6634 11.9614 22.2767 11.3942 22.9225C14.4755 23.7051 17.5173 23.7057 20.6064 22.9238H20.607ZM10.2716 21.9883C10.9101 21.2611 11.5031 20.5859 12.0968 19.9115C12.1571 19.8424 12.1506 19.7617 12.1506 19.681C12.1506 17.9642 12.1506 16.2474 12.1519 14.5306C12.1519 14.4186 12.126 14.3288 12.0501 14.2435C11.5005 13.625 10.9554 13.0026 10.4064 12.3828C10.374 12.3464 10.3526 12.2767 10.2716 12.3047V21.9883ZM21.7192 21.9772V12.2617C21.67 12.3047 21.646 12.3223 21.6265 12.3444C21.0633 12.9831 20.5007 13.623 19.9355 14.2598C19.8642 14.3405 19.848 14.4264 19.848 14.5273C19.8493 16.2441 19.8493 17.9603 19.8487 19.6771C19.8487 19.7669 19.8487 19.8516 19.9161 19.9277C20.5059 20.5951 21.0938 21.265 21.7199 21.9766L21.7192 21.9772ZM12.2543 4.55078C11.4402 4.79492 10.8763 5.27409 10.5173 6.00195C10.468 6.10221 10.4563 6.16862 10.6048 6.16276C10.8375 6.15299 11.0734 6.17057 11.3035 6.14258C11.8395 6.07682 12.2096 5.68034 12.2524 5.14062C12.2666 4.95638 12.255 4.76953 12.255 4.55078H12.2543ZM21.0776 6.16081C21.1903 6.16081 21.3031 6.15885 21.4159 6.16081C21.5248 6.16341 21.5384 6.11849 21.495 6.02799C21.1579 5.31901 20.6206 4.83854 19.8785 4.59245C19.8312 4.57682 19.7793 4.53516 19.745 4.625C19.5246 5.19596 19.9809 6.00326 20.5973 6.12891C20.7567 6.16146 20.9168 6.16341 21.0782 6.16081H21.0776Z" fill="#FF5710"/>
</svg>
