<svg width="28" height="28" viewBox="0 0 28 28" fill="none" xmlns="http://www.w3.org/2000/svg">
<path d="M24.465 7.23499L14.84 1.96859C14.5828 1.82649 14.2938 1.75195 14 1.75195C13.7062 1.75195 13.4172 1.82649 13.16 1.96859L3.535 7.23718C3.26013 7.38758 3.03068 7.60901 2.8706 7.87836C2.71053 8.14772 2.62571 8.4551 2.625 8.76843V19.2291C2.62571 19.5424 2.71053 19.8498 2.8706 20.1191C3.03068 20.3885 3.26013 20.6099 3.535 20.7603L13.16 26.0289C13.4172 26.171 13.7062 26.2455 14 26.2455C14.2938 26.2455 14.5828 26.171 14.84 26.0289L24.465 20.7603C24.7399 20.6099 24.9693 20.3885 25.1294 20.1191C25.2895 19.8498 25.3743 19.5424 25.375 19.2291V8.76952C25.3749 8.45564 25.2903 8.14757 25.1302 7.87759C24.9701 7.60761 24.7404 7.38566 24.465 7.23499ZM14 18.3748C13.1347 18.3748 12.2888 18.1182 11.5694 17.6375C10.8499 17.1568 10.2892 16.4735 9.95803 15.6741C9.62689 14.8747 9.54025 13.995 9.70906 13.1463C9.87787 12.2976 10.2946 11.5181 10.9064 10.9062C11.5183 10.2944 12.2978 9.87771 13.1465 9.7089C13.9951 9.54009 14.8748 9.62673 15.6742 9.95786C16.4737 10.289 17.1569 10.8498 17.6377 11.5692C18.1184 12.2887 18.375 13.1345 18.375 13.9998C18.375 15.1602 17.9141 16.273 17.0936 17.0934C16.2731 17.9139 15.1603 18.3748 14 18.3748Z" fill="white"/>
</svg>
