<svg width="28" height="28" viewBox="0 0 28 28" fill="none" xmlns="http://www.w3.org/2000/svg">
<path d="M22.75 4.375H5.25C4.78587 4.375 4.34075 4.55937 4.01256 4.88756C3.68437 5.21575 3.5 5.66087 3.5 6.125V12.25C3.5 18.0163 6.29125 21.5108 8.63297 23.427C11.1552 25.4898 13.6642 26.1898 13.7736 26.2194C13.924 26.2603 14.0826 26.2603 14.233 26.2194C14.3423 26.1898 16.8481 25.4898 19.3736 23.427C21.7087 21.5108 24.5 18.0163 24.5 12.25V6.125C24.5 5.66087 24.3156 5.21575 23.9874 4.88756C23.6592 4.55937 23.2141 4.375 22.75 4.375ZM18.9962 11.9941L12.8713 18.1191C12.79 18.2004 12.6935 18.265 12.5873 18.309C12.481 18.353 12.3672 18.3757 12.2522 18.3757C12.1372 18.3757 12.0233 18.353 11.9171 18.309C11.8109 18.265 11.7144 18.2004 11.6331 18.1191L9.00813 15.4941C8.84394 15.3299 8.7517 15.1072 8.7517 14.875C8.7517 14.6428 8.84394 14.4201 9.00813 14.2559C9.17231 14.0918 9.39499 13.9995 9.62719 13.9995C9.85938 13.9995 10.0821 14.0918 10.2463 14.2559L12.25 16.263L17.7559 10.7559C17.8372 10.6746 17.9337 10.6102 18.04 10.5662C18.1462 10.5222 18.26 10.4995 18.375 10.4995C18.49 10.4995 18.6038 10.5222 18.71 10.5662C18.8163 10.6102 18.9128 10.6746 18.9941 10.7559C19.0754 10.8372 19.1398 10.9337 19.1838 11.04C19.2278 11.1462 19.2505 11.26 19.2505 11.375C19.2505 11.49 19.2278 11.6038 19.1838 11.71C19.1398 11.8163 19.0754 11.9128 18.9941 11.9941H18.9962Z" fill="white"/>
</svg>
