<svg width="14" height="14" viewBox="0 0 14 14" fill="none" xmlns="http://www.w3.org/2000/svg">
<path d="M7 8.75V2.625" stroke="#FF5710" stroke-width="0.65625" stroke-linecap="round" stroke-linejoin="round"/>
<path d="M7 11.375C7.72487 11.375 8.3125 10.7874 8.3125 10.0625C8.3125 9.33763 7.72487 8.75 7 8.75C6.27513 8.75 5.6875 9.33763 5.6875 10.0625C5.6875 10.7874 6.27513 11.375 7 11.375Z" fill="#FF5710"/>
<path d="M5.25 2.625C5.25 2.16087 5.43437 1.71575 5.76256 1.38756C6.09075 1.05937 6.53587 0.875 7 0.875C7.46413 0.875 7.90925 1.05937 8.23744 1.38756C8.56563 1.71575 8.75 2.16087 8.75 2.625V7.54688C9.28506 7.91944 9.68725 8.45304 9.89803 9.07002C10.1088 9.68699 10.1172 10.3551 9.92196 10.9772C9.72672 11.5993 9.33804 12.1428 8.8125 12.5287C8.28696 12.9145 7.65199 13.1226 7 13.1226C6.34801 13.1226 5.71304 12.9145 5.1875 12.5287C4.66196 12.1428 4.27328 11.5993 4.07804 10.9772C3.8828 10.3551 3.89118 9.68699 4.10197 9.07002C4.31275 8.45304 4.71494 7.91944 5.25 7.54688V2.625Z" stroke="#FF5710" stroke-width="0.65625" stroke-linecap="round" stroke-linejoin="round"/>
</svg>
