<svg width="28" height="28" viewBox="0 0 28 28" fill="none" xmlns="http://www.w3.org/2000/svg">
<path d="M14 17.5V5.25" stroke="white" stroke-width="1.5" stroke-linecap="round" stroke-linejoin="round"/>
<path d="M14 22.75C15.4497 22.75 16.625 21.5747 16.625 20.125C16.625 18.6753 15.4497 17.5 14 17.5C12.5503 17.5 11.375 18.6753 11.375 20.125C11.375 21.5747 12.5503 22.75 14 22.75Z" fill="white"/>
<path d="M10.5 5.25C10.5 4.32174 10.8687 3.4315 11.5251 2.77513C12.1815 2.11875 13.0717 1.75 14 1.75C14.9283 1.75 15.8185 2.11875 16.4749 2.77513C17.1313 3.4315 17.5 4.32174 17.5 5.25V15.0938C18.5701 15.8389 19.3745 16.9061 19.7961 18.14C20.2176 19.374 20.2344 20.7103 19.8439 21.9544C19.4534 23.1986 18.6761 24.2856 17.625 25.0573C16.5739 25.8291 15.304 26.2452 14 26.2452C12.696 26.2452 11.4261 25.8291 10.375 25.0573C9.32391 24.2856 8.54656 23.1986 8.15608 21.9544C7.76559 20.7103 7.78236 19.374 8.20393 18.14C8.62551 16.9061 9.42989 15.8389 10.5 15.0938V5.25Z" stroke="white" stroke-width="1.5" stroke-linecap="round" stroke-linejoin="round"/>
</svg>
