<svg width="28" height="28" viewBox="0 0 28 28" fill="none" xmlns="http://www.w3.org/2000/svg">
<path d="M23.3906 13.7226L11.1406 26.8476C11.0108 26.9862 10.8395 27.0787 10.6524 27.1114C10.4654 27.144 10.2728 27.1149 10.1038 27.0284C9.93475 26.942 9.7984 26.8029 9.71534 26.6322C9.63227 26.4615 9.60698 26.2684 9.64329 26.082L11.2467 18.0616L4.94344 15.6947C4.80807 15.644 4.68735 15.5607 4.59207 15.452C4.49679 15.3433 4.42991 15.2127 4.39741 15.0719C4.36491 14.9311 4.3678 14.7844 4.40583 14.6449C4.44385 14.5055 4.51583 14.3776 4.61532 14.2728L16.8653 1.1478C16.9951 1.00927 17.1665 0.916707 17.3535 0.884098C17.5406 0.851489 17.7331 0.880597 17.9022 0.967031C18.0712 1.05346 18.2075 1.19253 18.2906 1.36325C18.3737 1.53397 18.399 1.72708 18.3627 1.91343L16.7548 9.94265L23.0581 12.3062C23.1925 12.3572 23.3123 12.4405 23.4068 12.5488C23.5013 12.657 23.5678 12.7869 23.6002 12.9269C23.6326 13.0669 23.6301 13.2127 23.5928 13.3515C23.5555 13.4903 23.4845 13.6178 23.3863 13.7226H23.3906Z" fill="#FF5710"/>
</svg>
