<svg width="28" height="28" viewBox="0 0 28 28" fill="none" xmlns="http://www.w3.org/2000/svg">
<path d="M19.7526 19.0993C20.3682 18.392 20.823 17.5778 21.0998 16.702C21.1788 16.4523 21.2432 16.1975 21.2925 15.9385C21.3784 15.4898 21.4194 15.0287 21.4134 14.5615C21.4074 14.0943 21.3548 13.6346 21.2573 13.1882L20.8815 13.294C20.7411 13.3335 20.597 13.2915 20.4995 13.1965C20.465 13.1628 20.4362 13.1224 20.4158 13.0766C20.4159 13.077 20.4158 13.0773 20.416 13.0776C20.6794 14.0552 20.6926 15.0872 20.4543 16.0709C20.4544 16.071 20.4542 16.0713 20.4542 16.0716C20.4454 16.1091 20.4358 16.1466 20.4258 16.1838C20.4257 16.1839 20.4256 16.1841 20.4256 16.1843C20.4253 16.1848 20.4253 16.1853 20.4254 16.1861C20.1756 17.1348 19.6904 18.0344 18.9677 18.7917L18.9671 18.7924C18.9523 18.8084 18.9372 18.8238 18.922 18.8394C18.9068 18.855 18.8918 18.8704 18.8763 18.8855L18.8754 18.8864C18.1367 19.628 17.2494 20.1361 16.3072 20.4095L16.3068 20.4099C16.2692 20.4209 16.2317 20.4312 16.194 20.4413C16.1938 20.4413 16.1936 20.4415 16.1934 20.4415C15.2155 20.7047 14.1831 20.7177 13.1989 20.4789C13.1985 20.4788 13.1984 20.4787 13.1983 20.4788C13.1605 20.4696 13.123 20.4601 13.0851 20.4503C13.0852 20.4502 13.0851 20.4501 13.0851 20.4501C13.0847 20.4502 13.0845 20.4502 13.0843 20.4501C12.2352 20.2264 11.4252 19.8137 10.7214 19.2114C10.6387 19.1407 10.5579 19.0675 10.4782 18.9916C10.4621 18.9767 10.4463 18.9612 10.4306 18.9459L10.4243 18.9398L9.87474 19.5035L9.88098 19.5096C9.97531 19.6016 10.0719 19.6907 10.1706 19.7763L10.1708 19.7765C10.8783 20.3923 11.6925 20.8473 12.5684 21.1243L12.5685 21.1245C12.8186 21.2036 13.0732 21.2679 13.3321 21.3174C13.781 21.4033 14.2417 21.4444 14.7089 21.4385C15.1763 21.4325 15.6361 21.3799 16.0824 21.2826C16.3401 21.2268 16.5931 21.156 16.8407 21.0708C17.7092 20.7718 18.5114 20.2966 19.203 19.663C19.2996 19.5748 19.3939 19.4833 19.4858 19.389C19.5778 19.2947 19.6667 19.1983 19.7526 19.0993Z" fill="white" stroke="white" stroke-width="0.2625"/>
<path d="M12.0603 23.9205C11.9628 23.8255 11.9174 23.6826 11.9533 23.5413L12.6646 20.7429C12.7182 20.5322 12.9324 20.4048 13.1431 20.4585C13.354 20.5121 13.4813 20.7264 13.4277 20.9371L12.7163 23.7355C12.6627 23.9462 12.4486 24.0736 12.2378 24.0199C12.1685 24.0021 12.1081 23.9671 12.0603 23.9205Z" fill="white" stroke="white" stroke-width="0.2625"/>
<path d="M20.9956 21.4073L18.9277 19.3913C18.772 19.2396 18.7688 18.9902 18.9205 18.8346C19.0722 18.679 19.3216 18.6759 19.4773 18.8276L21.5451 20.8436C21.7008 20.9954 21.704 21.2447 21.5523 21.4004C21.4006 21.556 21.1512 21.5591 20.9956 21.4073Z" fill="white" stroke="white" stroke-width="0.2625"/>
<path d="M20.4146 13.0752C20.4066 13.0576 20.3999 13.0394 20.3946 13.0203C20.3891 13.0005 20.3852 12.9808 20.3828 12.9609C20.3936 12.999 20.4046 13.0371 20.4146 13.0752Z" fill="white" stroke="white" stroke-width="0.2625"/>
<path d="M17.5048 26.1247C17.457 26.0781 17.4204 26.0186 17.4009 25.9497L15.9798 20.9056C15.9207 20.6963 16.0426 20.479 16.2519 20.4201C16.4612 20.3611 16.6787 20.483 16.7376 20.6924L18.1588 25.7365C18.2178 25.9458 18.0959 26.1631 17.8866 26.222C17.7462 26.2615 17.6022 26.2197 17.5048 26.1247Z" fill="white" stroke="white" stroke-width="0.2625"/>
<path d="M20.5445 16.5037C20.4471 16.4087 20.4016 16.2659 20.4375 16.1245C20.4911 15.9138 20.7053 15.7864 20.916 15.8401L25.9946 17.1327C26.2054 17.1863 26.3327 17.4006 26.2791 17.6113C26.2255 17.822 26.0114 17.9494 25.8006 17.8957L20.7221 16.6031C20.6527 16.5854 20.5923 16.5504 20.5445 16.5037Z" fill="white" stroke="white" stroke-width="0.2625"/>
<path d="M23.6725 12.5096L21.2691 13.1862L20.8932 13.292C20.7529 13.3315 20.6088 13.2895 20.5113 13.1945C20.4767 13.1608 20.448 13.1204 20.4275 13.0746C20.4175 13.0365 20.4065 12.9984 20.3958 12.9603C20.3955 12.96 20.3956 12.9596 20.3955 12.9593C20.1499 12.1163 19.7172 11.3178 19.0975 10.6298L10.7331 19.2094C10.6505 19.1388 10.5696 19.0655 10.49 18.9896C10.4739 18.9747 10.458 18.9592 10.4423 18.9439L10.6615 18.7191C10.665 18.7225 10.6684 18.7258 10.6719 18.7295C10.6687 18.7255 10.6653 18.7222 10.6618 18.7188C10.6382 18.6959 10.6114 18.6756 10.5822 18.659C10.5781 18.6567 10.5738 18.6544 10.5697 18.6521C10.563 18.6486 10.5563 18.6453 10.5492 18.642C10.5417 18.6387 10.5342 18.6355 10.5265 18.6327C10.5201 18.6301 10.5136 18.6278 10.5066 18.6258C10.5016 18.624 10.4964 18.6225 10.4908 18.621C10.486 18.6197 10.4811 18.6187 10.4763 18.6173C10.4658 18.6147 10.4551 18.6126 10.4439 18.6113C10.4358 18.61 10.4277 18.609 10.4197 18.6084C10.4123 18.6079 10.4049 18.6072 10.3976 18.6072C10.3894 18.6068 10.3804 18.6069 10.3717 18.6072C10.3658 18.6076 10.36 18.6078 10.3541 18.6084C10.3426 18.6093 10.3313 18.6107 10.3198 18.6126L10.1942 18.6344L10.194 18.6342L11.2381 17.5633L11.2383 17.5634L11.8464 17.5037L12.5478 16.7842L12.5476 16.784C12.5428 16.7793 12.5374 16.7743 12.5324 16.7699C12.528 16.7659 12.5232 16.7619 12.5185 16.7582C12.5168 16.7568 12.5151 16.7556 12.5134 16.7542C12.5099 16.7516 12.5063 16.7488 12.5027 16.7463C12.4839 16.7328 12.464 16.7207 12.4427 16.7106C12.4373 16.7079 12.4317 16.7055 12.4259 16.7031C12.4138 16.6979 12.4013 16.6933 12.3887 16.6894C12.3777 16.686 12.3663 16.683 12.3545 16.6807C12.349 16.6793 12.3432 16.6785 12.3372 16.6774C12.3185 16.6742 12.299 16.6724 12.2794 16.6722C12.2717 16.6721 12.2642 16.6722 12.2571 16.6725C12.2496 16.6726 12.2419 16.6732 12.2344 16.674L12.0917 16.6879L12.0916 16.6878L13.7847 14.9512L13.7848 14.9513L14.2254 15.0634L14.86 14.4126L14.7367 13.9749L14.7366 13.9748L16.6115 12.0516L16.6116 12.0518L16.601 12.1949C16.6011 12.1951 16.601 12.1952 16.601 12.1957C16.6006 12.2011 16.6004 12.2065 16.6003 12.2123C16.6003 12.2175 16.6002 12.2231 16.6002 12.2286C16.6003 12.2396 16.601 12.2509 16.602 12.2623C16.6032 12.2743 16.605 12.286 16.6071 12.2976C16.6082 12.3028 16.6091 12.3078 16.6101 12.3127C16.6107 12.3139 16.6109 12.3153 16.611 12.317C16.6121 12.3211 16.6132 12.3252 16.6143 12.3292C16.6178 12.3415 16.6216 12.3534 16.6263 12.365C16.6283 12.3703 16.6307 12.3759 16.6329 12.3814C16.635 12.386 16.6374 12.3908 16.6394 12.3955C16.641 12.3988 16.6424 12.4018 16.6442 12.4048C16.6473 12.4111 16.6508 12.4173 16.6544 12.4233C16.6578 12.4292 16.6613 12.4349 16.6652 12.4407C16.6698 12.4477 16.6748 12.4546 16.6797 12.4612C16.6829 12.4653 16.6859 12.469 16.6889 12.4729C16.69 12.474 16.6908 12.4753 16.6919 12.4766C16.696 12.4814 16.7002 12.4862 16.7045 12.4907C16.7092 12.4957 16.714 12.5007 16.7188 12.5054L16.7191 12.5056L17.4205 11.7862L17.4646 11.1768L17.4645 11.1767L18.5089 10.1054L19.0955 6.10356C19.1269 5.88865 19.3269 5.73987 19.5421 5.77156C19.7573 5.80325 19.9062 6.0032 19.8747 6.21824L19.4457 9.14442L20.5164 8.0462L20.9767 4.9078C21.0082 4.69275 21.2081 4.54411 21.4231 4.57567C21.6384 4.60723 21.787 4.80705 21.7557 5.02223L21.4532 7.08527L22.4677 6.04472C22.6195 5.88898 22.8688 5.88598 23.0244 6.03774C23.1801 6.18949 23.1834 6.43874 23.0316 6.59448L19.6482 10.0649L19.6484 10.065C20.282 10.7567 20.7575 11.559 21.0567 12.4276C21.0567 12.4276 21.0569 12.4277 21.0567 12.4279L23.459 11.7517C23.6682 11.6928 23.8857 11.8146 23.9446 12.0241C24.0037 12.2334 23.8819 12.4508 23.6725 12.5096Z" fill="white" stroke="white" stroke-width="0.2625"/>
<path d="M17.423 11.7833L16.7216 12.5027L16.7213 12.5025C16.7165 12.4978 16.7117 12.4928 16.707 12.4878C16.7026 12.4835 16.6986 12.4785 16.6944 12.4737C16.6934 12.4724 16.6926 12.4711 16.6914 12.47C16.6884 12.4661 16.6854 12.4624 16.6823 12.4583C16.6773 12.4517 16.6724 12.4448 16.6678 12.4378C16.6638 12.432 16.6603 12.4263 16.6569 12.4204C16.6534 12.4144 16.6498 12.4082 16.6468 12.4019C16.6449 12.3989 16.6435 12.3959 16.6419 12.3926C16.6399 12.3879 16.6376 12.3831 16.6354 12.3785C16.6332 12.373 16.6308 12.3674 16.6288 12.3621C16.6242 12.3505 16.6203 12.3386 16.6168 12.3263C16.6157 12.3223 16.6147 12.3182 16.6136 12.3141C16.6134 12.3124 16.6133 12.311 16.6126 12.3098C16.6117 12.3049 16.6107 12.2999 16.6096 12.2947C16.6075 12.2831 16.6057 12.2714 16.6045 12.2594C16.6035 12.248 16.6028 12.2367 16.6027 12.2257C16.6027 12.2202 16.6028 12.2146 16.6029 12.2094C16.6029 12.2036 16.6031 12.1982 16.6035 12.1928C16.6035 12.1923 16.6037 12.1922 16.6035 12.1921L16.614 12.049L16.6139 12.0489L16.9583 7.31905C16.974 7.10202 17.1628 6.93927 17.3794 6.95503C17.5964 6.97104 17.7593 7.15953 17.7435 7.37643L17.4671 11.1737L17.4673 11.1738L17.423 11.7833Z" fill="white" stroke="white" stroke-width="0.2625"/>
<path d="M17.4226 11.7866L16.7214 12.5058L16.7212 12.5055C16.7164 12.5009 16.7115 12.4959 16.7069 12.4908C16.7024 12.4865 16.6984 12.4816 16.6942 12.4768C16.6932 12.4755 16.6924 12.4742 16.6912 12.4731C16.6882 12.4691 16.6852 12.4655 16.6821 12.4614C16.6771 12.4548 16.6722 12.4479 16.6676 12.4409C16.6637 12.4351 16.6601 12.4293 16.6567 12.4235C16.6532 12.4175 16.6496 12.4112 16.6466 12.405C16.6448 12.4019 16.6433 12.399 16.6417 12.3957C16.6398 12.391 16.6374 12.3861 16.6353 12.3815C16.633 12.376 16.6306 12.3704 16.6286 12.3652C16.6243 12.3536 16.6203 12.3416 16.6166 12.3294C16.6156 12.3253 16.6145 12.3212 16.6134 12.3171C16.6132 12.3155 16.6131 12.3141 16.6124 12.3129C16.6115 12.3079 16.6105 12.3029 16.6094 12.2978C16.6074 12.2862 16.6055 12.2745 16.6044 12.2625C16.6033 12.2511 16.6027 12.2398 16.6025 12.2287C16.6026 12.2232 16.6026 12.2177 16.6027 12.2125C16.6027 12.2067 16.6029 12.2013 16.6034 12.1959C16.6034 12.1954 16.6035 12.1952 16.6034 12.1951C16.6101 12.1006 16.6509 12.014 16.7144 11.9489C16.7778 11.8839 16.8612 11.8415 16.9573 11.8321L17.4226 11.7866Z" fill="white" stroke="white" stroke-width="0.2625"/>
<path d="M10.6671 18.7289C10.6636 18.7252 10.6602 18.7219 10.6567 18.7185L9.91363 19.4807L9.91575 19.466L9.99241 18.9429C10.0048 18.8577 10.044 18.7829 10.0998 18.7256C10.1557 18.6683 10.2322 18.6264 10.3149 18.6121C10.3265 18.6101 10.3377 18.6087 10.3493 18.6078C10.3552 18.6072 10.3609 18.607 10.3668 18.6067C10.3756 18.6063 10.3845 18.6062 10.3928 18.6066C10.4001 18.6066 10.4075 18.6073 10.4148 18.6079C10.4229 18.6084 10.431 18.6094 10.4391 18.6108C10.4503 18.612 10.461 18.6141 10.4715 18.6168C10.4763 18.6181 10.4812 18.6191 10.486 18.6204C10.4916 18.6219 10.4968 18.6234 10.5018 18.6252C10.5087 18.6272 10.5153 18.6296 10.5216 18.6322C10.5294 18.6349 10.5369 18.6381 10.5443 18.6414C10.5514 18.6448 10.5582 18.648 10.5649 18.6515C10.569 18.6538 10.5733 18.6562 10.5774 18.6584C10.6066 18.675 10.6334 18.6953 10.657 18.7182C10.6605 18.7217 10.6638 18.725 10.6671 18.7289Z" fill="white"/>
<path d="M10.6602 18.7185L9.91714 19.4807L9.90254 19.4832L9.25592 19.5949L9.25579 19.5947L6.34159 20.0978C6.21203 20.12 6.08663 20.0765 5.99945 19.9915C5.94202 19.9355 5.90104 19.8619 5.88635 19.7769C5.84921 19.5625 5.99285 19.3588 6.20715 19.3217L10.1926 18.6338L10.1927 18.6339L10.3185 18.6121C10.33 18.6102 10.3413 18.6087 10.3528 18.6078C10.3587 18.6072 10.3645 18.607 10.3704 18.6067C10.3791 18.6063 10.388 18.6062 10.3963 18.6066C10.4036 18.6067 10.411 18.6073 10.4183 18.6079C10.4264 18.6084 10.4345 18.6095 10.4426 18.6108C10.4538 18.6121 10.4645 18.6141 10.475 18.6168C10.4798 18.6182 10.4847 18.6191 10.4895 18.6205C10.4951 18.6219 10.5003 18.6234 10.5053 18.6253C10.5123 18.6272 10.5188 18.6296 10.5252 18.6322C10.5329 18.6349 10.5404 18.6382 10.5479 18.6414C10.555 18.6448 10.5617 18.648 10.5684 18.6516C10.5725 18.6538 10.5768 18.6562 10.5809 18.6585C10.6097 18.6752 10.6363 18.6952 10.6602 18.7185Z" fill="white"/>
<path d="M12.5476 16.7846L11.8462 17.5041L11.8801 17.0376C11.8869 16.9414 11.9283 16.8558 11.9907 16.7918C12.0592 16.7215 12.1535 16.6771 12.2568 16.6729C12.264 16.6726 12.2714 16.6725 12.2791 16.6727C12.2988 16.6728 12.3183 16.6746 12.3369 16.6778C12.343 16.6789 12.3488 16.6797 12.3543 16.6811C12.366 16.6834 12.3775 16.6864 12.3884 16.6898C12.401 16.6937 12.4135 16.6983 12.4257 16.7035C12.4315 16.7059 12.437 16.7083 12.4424 16.711C12.4637 16.7212 12.4837 16.7332 12.5024 16.7467C12.5061 16.7492 12.5097 16.752 12.5132 16.7547C12.5149 16.7561 12.5166 16.7572 12.5182 16.7586C12.5229 16.7624 12.5277 16.7663 12.5321 16.7703C12.5372 16.7748 12.5425 16.7797 12.5473 16.7844L12.5476 16.7846Z" fill="white"/>
<path d="M12.5438 16.7829L11.8424 17.5023L11.2343 17.5619L11.2342 17.5618L7.44508 17.9347C7.32489 17.9465 7.21194 17.903 7.13164 17.8247C7.06745 17.7621 7.02415 17.6776 7.01457 17.5814C6.99332 17.3653 7.15134 17.1723 7.36777 17.1512L12.0874 16.6866L12.0876 16.6867L12.2303 16.6726C12.2379 16.6719 12.2456 16.6713 12.253 16.6712C12.2602 16.6708 12.2676 16.6707 12.2753 16.6709C12.295 16.671 12.3145 16.6729 12.3331 16.6761C12.3392 16.6772 12.345 16.678 12.3505 16.6793C12.3622 16.6816 12.3737 16.6847 12.3846 16.688C12.3972 16.692 12.4097 16.6965 12.4219 16.7018C12.4277 16.7041 12.4332 16.7065 12.4386 16.7093C12.4599 16.7194 12.4798 16.7315 12.4986 16.745C12.5023 16.7475 12.5059 16.7503 12.5094 16.7529C12.5111 16.7543 12.5127 16.7554 12.5144 16.7568C12.5191 16.7606 12.5239 16.7645 12.5283 16.7686C12.5334 16.773 12.5387 16.7779 12.5435 16.7826L12.5438 16.7829Z" fill="white"/>
<path d="M8.65656 20.7765L8.65695 20.7768L7.91375 21.5392L7.99254 21.0014C8.00504 20.916 8.04411 20.8414 8.10008 20.7839C8.15605 20.7265 8.23224 20.6848 8.31494 20.6707C8.31507 20.6705 8.3152 20.6707 8.31545 20.6704C8.32339 20.669 8.33146 20.668 8.33915 20.6671C8.34633 20.6665 8.35376 20.6657 8.36107 20.6655C8.37184 20.6651 8.38235 20.6647 8.39288 20.6651C8.40007 20.6652 8.40752 20.6659 8.41483 20.6662C8.42254 20.6669 8.43064 20.6677 8.43861 20.6688C8.46033 20.672 8.48143 20.6769 8.50192 20.6837C8.50862 20.6859 8.51506 20.6882 8.52164 20.6905C8.5295 20.6934 8.53699 20.6966 8.5446 20.7C8.55092 20.7028 8.55712 20.7059 8.56319 20.709C8.56616 20.7104 8.569 20.7121 8.57172 20.7137C8.58942 20.7234 8.6065 20.7345 8.62231 20.7469L8.62244 20.747C8.63423 20.7559 8.64539 20.7658 8.65618 20.7763L8.65656 20.7765Z" fill="white"/>
<path d="M8.65253 20.7767L8.65292 20.7771L7.90972 21.5394L7.24863 21.6534L5.19394 22.0079C5.06464 22.0303 4.93912 21.987 4.8518 21.9018C4.79424 21.8457 4.75365 21.772 4.73895 21.6869C4.70181 21.4726 4.84545 21.2689 5.05976 21.2318L8.18545 20.6922L8.31091 20.6706C8.31091 20.6706 8.31116 20.6706 8.31142 20.6704C8.31935 20.669 8.32742 20.668 8.33511 20.6671C8.34229 20.6665 8.34972 20.6657 8.35703 20.6654C8.3678 20.6651 8.37832 20.6647 8.38884 20.665C8.39603 20.6652 8.40348 20.6659 8.4108 20.6662C8.4185 20.6669 8.4266 20.6677 8.43457 20.6688C8.45629 20.672 8.4774 20.6769 8.49788 20.6837C8.50458 20.6859 8.51103 20.6881 8.5176 20.6905C8.52546 20.6934 8.53295 20.6966 8.54056 20.7C8.54689 20.7028 8.55308 20.7058 8.55915 20.709C8.56212 20.7103 8.56497 20.7121 8.56768 20.7137C8.58526 20.7235 8.60234 20.7346 8.61827 20.7468L8.6184 20.747C8.6302 20.7559 8.64136 20.7658 8.65214 20.7763L8.65253 20.7767Z" fill="white"/>
<path d="M13.9723 14.1852L11.3693 13.5226L11.4514 13.6373C11.3993 13.5652 11.3254 13.5146 11.2436 13.4907L11.3692 13.5224L8.60588 9.66736C8.47915 9.49035 8.23319 9.44994 8.05661 9.57648C7.8799 9.70315 7.83931 9.9491 7.96604 10.1258L10.1844 13.2209L8.73448 12.8519L8.81606 12.9499C8.76524 12.8887 8.69732 12.8453 8.62275 12.8235L8.73423 12.8519L6.14436 9.74403C6.00518 9.57693 5.75701 9.55438 5.58996 9.6935C5.4229 9.83263 5.40031 10.0809 5.53961 10.2479L7.43334 12.5205L5.94671 12.1423L5.94632 12.1419L6.02816 12.2402C5.97785 12.1798 5.91084 12.1365 5.83716 12.1145L5.94632 12.1419L3.91537 9.70488C3.77632 9.53765 3.52802 9.51524 3.36084 9.65449C3.19391 9.79348 3.17132 10.0418 3.31049 10.2089L4.64582 11.8112L3.23295 11.4517C3.0221 11.3979 2.80819 11.5253 2.75432 11.736C2.71854 11.8774 2.764 12.0203 2.86132 12.1152C2.90927 12.1619 2.96964 12.197 3.03902 12.2147L4.45125 12.5741L4.45138 12.5742L2.51364 13.3432C2.3117 13.4234 2.2129 13.6522 2.29312 13.8543C2.31433 13.9074 2.34572 13.9534 2.38405 13.9908C2.49189 14.0959 2.65533 14.1342 2.80442 14.0751L5.75213 12.9052L5.63924 12.8762C5.71413 12.893 5.79335 12.8879 5.86651 12.8599L5.75239 12.9052L7.23916 13.2838L4.49045 14.3745C4.28838 14.4547 4.18971 14.6836 4.26993 14.8856C4.29101 14.9389 4.32227 14.9848 4.36073 15.0223C4.46857 15.1274 4.63214 15.1656 4.78123 15.1065L8.53991 13.6148L9.98986 13.9838L6.56319 15.6418C6.36759 15.7367 6.28568 15.972 6.38045 16.1677C6.40101 16.2101 6.42804 16.2471 6.46001 16.2782C6.57526 16.3906 6.75314 16.4249 6.9064 16.3506L11.1746 14.2853L11.1745 14.2852L11.0415 14.2513C11.1263 14.2714 11.2175 14.2635 11.2996 14.2247L11.1746 14.2853L13.7778 14.9479L14.0953 14.6223L13.972 14.1849L13.9723 14.1852ZM6.06665 12.6894C6.07368 12.6773 6.07994 12.6649 6.08567 12.6522C6.08007 12.665 6.07381 12.6774 6.06665 12.6894ZM5.83562 12.1143C5.82596 12.1115 5.81605 12.1089 5.80614 12.1069C5.81605 12.1089 5.82609 12.1114 5.83562 12.1143ZM8.85443 13.399C8.86146 13.3868 8.86771 13.3744 8.87345 13.3618C8.86784 13.3746 8.86159 13.387 8.85443 13.399ZM11.0311 14.2488L11.0354 14.2499L11.0386 14.2507C11.0361 14.2501 11.0336 14.2494 11.0311 14.2488Z" fill="white"/>
<path d="M5.94632 12.1419L5.94671 12.1423L7.43334 12.5205L5.53961 10.2479C5.40031 10.0809 5.4229 9.83263 5.58996 9.6935C5.75701 9.55438 6.00518 9.57693 6.14436 9.74403L8.73423 12.8519L8.62275 12.8235C8.69732 12.8453 8.76524 12.8887 8.81606 12.9499L8.73448 12.8519L10.1844 13.2209L7.96604 10.1258C7.83931 9.9491 7.8799 9.70315 8.05661 9.57648C8.23319 9.44994 8.47915 9.49035 8.60588 9.66736L11.3692 13.5224L11.2436 13.4907C11.3254 13.5146 11.3993 13.5652 11.4514 13.6373L11.3693 13.5226L13.9723 14.1852L13.972 14.1849L14.0953 14.6223L13.7778 14.9479L11.1746 14.2853M5.94632 12.1419L6.02815 12.2402C5.97785 12.1798 5.91084 12.1365 5.83716 12.1145L5.94632 12.1419ZM5.94632 12.1419L3.91537 9.70488C3.77632 9.53765 3.52802 9.51524 3.36084 9.65449C3.19391 9.79348 3.17132 10.0418 3.31049 10.2089L4.64582 11.8112L3.23295 11.4517C3.0221 11.3979 2.80819 11.5253 2.75432 11.736C2.71854 11.8774 2.764 12.0203 2.86132 12.1152C2.90927 12.1619 2.96964 12.197 3.03902 12.2147L4.45125 12.5741L4.45138 12.5742L2.51364 13.3432C2.3117 13.4234 2.2129 13.6522 2.29312 13.8543C2.31433 13.9074 2.34572 13.9534 2.38405 13.9908C2.49189 14.0959 2.65533 14.1342 2.80442 14.0751L5.75213 12.9052L5.63924 12.8762C5.71413 12.893 5.79335 12.8879 5.86651 12.8599L5.75239 12.9052L7.23916 13.2838L4.49045 14.3745C4.28838 14.4547 4.18971 14.6836 4.26993 14.8856C4.29101 14.9389 4.32227 14.9848 4.36073 15.0223C4.46857 15.1274 4.63214 15.1655 4.78123 15.1065L8.53991 13.6148L9.98986 13.9838L6.56319 15.6418C6.36759 15.7367 6.28568 15.972 6.38045 16.1677C6.40101 16.2101 6.42804 16.2471 6.46001 16.2782C6.57526 16.3906 6.75314 16.4249 6.9064 16.3506L11.1746 14.2853M11.1746 14.2853L11.1745 14.2852L11.0415 14.2513C11.1263 14.2714 11.2175 14.2635 11.2996 14.2247L11.1746 14.2853ZM6.06665 12.6894C6.07368 12.6773 6.07994 12.6649 6.08567 12.6522C6.08007 12.665 6.07381 12.6774 6.06665 12.6894ZM5.83562 12.1143C5.82596 12.1115 5.81605 12.1089 5.80614 12.1069C5.81605 12.1089 5.82609 12.1114 5.83562 12.1143ZM8.85443 13.399C8.86146 13.3868 8.86771 13.3744 8.87345 13.3618C8.86784 13.3746 8.86159 13.387 8.85443 13.399ZM11.0311 14.2488L11.0354 14.2499L11.0386 14.2507C11.0361 14.2501 11.0336 14.2494 11.0311 14.2488Z" stroke="white" stroke-width="0.2625"/>
<path d="M5.95246 12.1441L6.03429 12.2423C5.98399 12.1819 5.91697 12.1386 5.8433 12.1167L5.95246 12.1441Z" fill="white" stroke="white" stroke-width="0.2625"/>
<path d="M5.87399 12.8615L5.75987 12.9068L5.75974 12.9067L5.64672 12.8778C5.72161 12.8946 5.80083 12.8895 5.87399 12.8615Z" fill="white" stroke="white" stroke-width="0.2625"/>
<path d="M6.09375 12.6543C6.08814 12.6671 6.08188 12.6795 6.07473 12.6915C6.08176 12.6793 6.08801 12.6669 6.09375 12.6543Z" fill="white" stroke="white" stroke-width="0.2625"/>
<path d="M8.74334 12.8529L8.82492 12.9509C8.77409 12.8897 8.70617 12.8463 8.63161 12.8245L8.74308 12.8529L8.74334 12.8529Z" fill="white" stroke="white" stroke-width="0.2625"/>
<path d="M8.88281 13.3652C8.8772 13.378 8.87095 13.3904 8.86379 13.4024C8.87082 13.3903 8.87707 13.3779 8.88281 13.3652Z" fill="white" stroke="white" stroke-width="0.2625"/>
<path d="M11.3773 13.5257L11.4594 13.6404C11.4072 13.5683 11.3333 13.5178 11.2515 13.4938L11.3772 13.5255L11.3773 13.5257Z" fill="white" stroke="white" stroke-width="0.2625"/>
<path d="M11.3065 14.2254L11.1816 14.286L11.1814 14.2859L11.0485 14.252C11.1333 14.2721 11.2244 14.2642 11.3065 14.2254Z" fill="white" stroke="white" stroke-width="0.2625"/>
<path d="M14.8608 14.4091L14.2262 15.06L13.7857 14.9478L13.7855 14.9478L14.1029 14.6221L13.9797 14.1848L14.42 14.2969L14.8608 14.4091Z" fill="white" stroke="white" stroke-width="0.2625"/>
<path d="M8.74334 12.8529L8.82492 12.9509C8.77409 12.8897 8.70617 12.8463 8.63161 12.8245L8.74308 12.8529L8.74334 12.8529Z" fill="white" stroke="white" stroke-width="0.2625"/>
<path d="M8.88281 13.3652C8.8772 13.378 8.87095 13.3904 8.86379 13.4024C8.87082 13.3903 8.87707 13.3779 8.88281 13.3652Z" fill="white" stroke="white" stroke-width="0.2625"/>
<path d="M11.0409 14.2504L11.0445 14.2514C11.0417 14.2507 11.0388 14.2499 11.036 14.2492L11.0409 14.2504Z" fill="white" stroke="white" stroke-width="0.2625"/>
<path d="M11.3065 14.2254L11.1816 14.286L11.1814 14.2859L11.0485 14.252C11.1333 14.2721 11.2244 14.2642 11.3065 14.2254Z" fill="white" stroke="white" stroke-width="0.2625"/>
<path d="M11.3773 13.5257L11.4594 13.6404C11.4072 13.5683 11.3333 13.5178 11.2515 13.4938L11.3772 13.5255L11.3773 13.5257Z" fill="white" stroke="white" stroke-width="0.2625"/>
<path d="M11.0409 14.2504L11.0445 14.2514C11.0417 14.2507 11.0388 14.2499 11.036 14.2492L11.0409 14.2504Z" fill="white" stroke="white" stroke-width="0.2625"/>
<path d="M5.81749 12.1066C5.82739 12.1087 5.83743 12.1111 5.84697 12.1141C5.83731 12.1112 5.82739 12.1087 5.81749 12.1066Z" fill="white" stroke="white" stroke-width="0.2625"/>
<path d="M5.87399 12.8615L5.75987 12.9068L5.75974 12.9067L5.64672 12.8778C5.72161 12.8946 5.80083 12.8895 5.87399 12.8615Z" fill="white" stroke="white" stroke-width="0.2625"/>
<path d="M5.81749 12.1066C5.82739 12.1087 5.83743 12.1111 5.84697 12.1141C5.83731 12.1112 5.82739 12.1087 5.81749 12.1066Z" fill="white" stroke="white" stroke-width="0.2625"/>
<path d="M5.95246 12.1441L6.03429 12.2423C5.98399 12.1819 5.91697 12.1386 5.8433 12.1167L5.95246 12.1441Z" fill="white" stroke="white" stroke-width="0.2625"/>
<path d="M6.09375 12.6543C6.08814 12.6671 6.08188 12.6795 6.07473 12.6915C6.08176 12.6793 6.08801 12.6669 6.09375 12.6543Z" fill="white" stroke="white" stroke-width="0.2625"/>
<path d="M14.0845 11.6375L14.0279 11.7621C14.0624 11.6828 14.0687 11.596 14.0497 11.5148L14.0844 11.6373L16.0409 7.318C16.1306 7.11993 16.0426 6.8865 15.8446 6.79686C15.6465 6.70709 15.4133 6.79483 15.3236 6.9929L13.7528 10.4606L13.3472 9.02061L13.3471 9.02048L13.3057 9.13288C13.3308 9.06059 13.3337 8.9828 13.3157 8.90977L13.3471 9.02048L14.7428 5.22486C14.8178 5.02082 14.7133 4.79452 14.5092 4.71946C14.305 4.64427 14.0789 4.74885 14.0039 4.95289L12.9832 7.72855L12.5669 6.25188L12.5255 6.36402C12.5509 6.29121 12.5537 6.21291 12.5352 6.13937L12.5668 6.25175L13.6616 3.27488C13.7366 3.07084 13.6319 2.84467 13.428 2.76948C13.2238 2.69429 12.9976 2.79887 12.9226 3.00291L12.2029 4.95982L11.8076 3.55679C11.7486 3.3475 11.5311 3.22565 11.3218 3.28434C11.1127 3.34316 10.9908 3.56075 11.0498 3.77004L11.445 5.17307L9.80961 3.87913C9.63903 3.74424 9.39126 3.77301 9.25642 3.94354C9.13018 4.1032 9.14747 4.33033 9.29013 4.46942C9.29988 4.47892 9.31013 4.4879 9.32102 4.49649L11.8091 6.46513L11.809 6.465L11.7783 6.35505C11.7978 6.41613 11.8322 6.47215 11.8787 6.5175C11.8883 6.52688 11.8984 6.53573 11.9092 6.54419L11.8091 6.46513L12.2251 7.9418L9.90524 6.10654C9.73465 5.97165 9.48714 6.00042 9.35218 6.17083C9.22593 6.33048 9.24322 6.55761 9.38589 6.6967C9.39563 6.7062 9.40602 6.71531 9.4169 6.7239L12.5894 9.23386L12.5577 9.12135C12.5771 9.18333 12.6117 9.24038 12.6588 9.28636C12.6685 9.29573 12.6786 9.30459 12.6893 9.31305L12.5897 9.23411L12.9948 10.6738L9.84461 8.53504C9.6647 8.41284 9.41986 8.45966 9.29772 8.63953C9.18893 8.79973 9.21423 9.01163 9.34832 9.14236C9.3647 9.15832 9.38285 9.17297 9.40239 9.18645L13.3267 11.851L13.3265 11.8508L13.2912 11.7246C13.3106 11.7859 13.3448 11.842 13.3917 11.8877C13.4073 11.9029 13.4243 11.917 13.4426 11.9296L13.3267 11.851L13.9846 14.1865L14.425 14.2987L14.7425 13.973L14.0845 11.6375ZM12.5323 6.12838C12.5316 6.1262 12.531 6.12416 12.5304 6.12198L12.5297 6.11956C12.5306 6.12249 12.5316 6.12543 12.5323 6.12838ZM12.3224 6.5911C12.3349 6.58504 12.3471 6.57847 12.3591 6.57114C12.3473 6.5786 12.335 6.58517 12.3224 6.5911ZM13.3151 8.90798C13.3138 8.90235 13.3121 8.89672 13.3104 8.89097L13.3099 8.88841C13.3119 8.89493 13.3136 8.90145 13.3151 8.90798Z" fill="white"/>
<path d="M13.3471 9.02048L13.3472 9.02061L13.7528 10.4606L15.3236 6.9929C15.4133 6.79483 15.6465 6.70709 15.8446 6.79686C16.0426 6.8865 16.1306 7.11993 16.0409 7.318L14.0844 11.6373L14.0497 11.5148C14.0687 11.596 14.0624 11.6828 14.0279 11.7621L14.0845 11.6375L14.7425 13.973L14.425 14.2987L13.9846 14.1865L13.3267 11.851M13.3471 9.02048L13.3057 9.13288C13.3308 9.06059 13.3337 8.9828 13.3157 8.90977L13.3471 9.02048ZM13.3471 9.02048L14.7428 5.22486C14.8178 5.02082 14.7133 4.79452 14.5092 4.71946C14.305 4.64427 14.0789 4.74885 14.0039 4.95289L12.9832 7.72855L12.5669 6.25188L12.5255 6.36402C12.5509 6.29121 12.5537 6.21291 12.5352 6.13937L12.5668 6.25175L13.6616 3.27488C13.7366 3.07084 13.6319 2.84467 13.428 2.76948C13.2238 2.69429 12.9976 2.79887 12.9226 3.00291L12.2029 4.95982L11.8076 3.55679C11.7486 3.3475 11.5311 3.22565 11.3218 3.28434C11.1127 3.34316 10.9908 3.56075 11.0498 3.77004L11.445 5.17307L9.80961 3.87913C9.63903 3.74424 9.39126 3.77301 9.25642 3.94354C9.13018 4.1032 9.14747 4.33033 9.29013 4.46942C9.29988 4.47892 9.31013 4.4879 9.32102 4.49649L11.8091 6.46513M11.8091 6.46513L11.809 6.465L11.7783 6.35505C11.7978 6.41613 11.8322 6.47215 11.8787 6.5175C11.8883 6.52688 11.8984 6.53573 11.9092 6.54419L11.8091 6.46513ZM11.8091 6.46513L12.2251 7.9418L9.90524 6.10654C9.73465 5.97165 9.48714 6.00042 9.35218 6.17083C9.22593 6.33048 9.24322 6.55761 9.38589 6.6967C9.39563 6.7062 9.40602 6.71531 9.4169 6.7239L12.5894 9.23386L12.5577 9.12135C12.5771 9.18333 12.6117 9.24038 12.6588 9.28636C12.6685 9.29573 12.6786 9.30459 12.6893 9.31305L12.5897 9.23411L12.9948 10.6738L9.84461 8.53504C9.6647 8.41284 9.41986 8.45966 9.29772 8.63953C9.18893 8.79973 9.21423 9.01163 9.34832 9.14236C9.3647 9.15832 9.38285 9.17297 9.40239 9.18645L13.3267 11.851M13.3267 11.851L13.3265 11.8508L13.2912 11.7246C13.3106 11.7859 13.3448 11.842 13.3917 11.8877C13.4073 11.9029 13.4243 11.917 13.4426 11.9296L13.3267 11.851ZM12.5323 6.12838C12.5316 6.1262 12.531 6.12416 12.5304 6.12198L12.5297 6.11956C12.5306 6.12249 12.5316 6.12543 12.5323 6.12838ZM12.3224 6.5911C12.3349 6.58504 12.3471 6.57847 12.3591 6.57114C12.3473 6.5786 12.335 6.58517 12.3224 6.5911ZM13.3151 8.90798C13.3138 8.90235 13.3121 8.89672 13.3104 8.89097L13.3099 8.88841C13.3119 8.89493 13.3136 8.90145 13.3151 8.90798Z" stroke="white" stroke-width="0.2625"/>
<path d="M11.8738 6.51597C11.8834 6.52534 11.8935 6.5342 11.9043 6.54266L11.8042 6.4636L11.8041 6.46347L11.7734 6.35352C11.793 6.4146 11.8273 6.47062 11.8738 6.51597Z" fill="white" stroke="white" stroke-width="0.35"/>
<path d="M12.563 6.25118L12.5216 6.36332C12.5469 6.29051 12.5498 6.21221 12.5312 6.13867L12.5628 6.25105L12.563 6.25118Z" fill="white" stroke="white" stroke-width="0.35"/>
<path d="M12.3159 6.59108C12.3284 6.58502 12.3406 6.57845 12.3526 6.57111C12.3407 6.57858 12.3285 6.58514 12.3159 6.59108Z" fill="white" stroke="white" stroke-width="0.35"/>
<path d="M12.6559 9.28806C12.6655 9.29743 12.6756 9.30629 12.6864 9.31475L12.5867 9.23581L12.5864 9.23555L12.5547 9.12305C12.5741 9.18503 12.6087 9.24208 12.6559 9.28806Z" fill="white" stroke="white" stroke-width="0.2625"/>
<path d="M13.3025 9.13327C13.3277 9.06098 13.3305 8.98319 13.3125 8.91016L13.3439 9.02087L13.3025 9.13327Z" fill="white" stroke="white" stroke-width="0.2625"/>
<path d="M13.4327 11.9295L13.3167 11.8509L13.3166 11.8508L13.2812 11.7246C13.3006 11.7858 13.3349 11.842 13.3818 11.8877C13.3973 11.9029 13.4143 11.9169 13.4327 11.9295Z" fill="white" stroke="white" stroke-width="0.2625"/>
<path d="M14.0172 11.7629C14.0517 11.6835 14.0581 11.5967 14.0391 11.5156L14.0737 11.6381L14.0739 11.6382L14.0172 11.7629Z" fill="white" stroke="white" stroke-width="0.2625"/>
<path d="M14.866 14.4119L14.2315 15.0627L14.1082 14.6251L14.1082 14.6249L13.9849 14.1875L14.4253 14.2996L14.7428 13.974L14.7428 13.9742L14.866 14.4119Z" fill="white" stroke="white" stroke-width="0.2625"/>
<path d="M12.6559 9.28806C12.6655 9.29743 12.6756 9.30629 12.6864 9.31475L12.5867 9.23581L12.5864 9.23555L12.5547 9.12305C12.5741 9.18503 12.6087 9.24208 12.6559 9.28806Z" fill="white" stroke="white" stroke-width="0.2625"/>
<path d="M13.3099 8.90628C13.3086 8.90066 13.307 8.89503 13.3052 8.88928L13.3047 8.88672C13.3067 8.89324 13.3084 8.89976 13.3099 8.90628Z" fill="white" stroke="white" stroke-width="0.2625"/>
<path d="M13.3047 8.88672C13.3067 8.89324 13.3084 8.89976 13.3099 8.90628C13.3086 8.90066 13.307 8.89503 13.3052 8.88928L13.3047 8.88672Z" fill="white" stroke="white" stroke-width="0.2625"/>
<path d="M13.3025 9.13327C13.3277 9.06098 13.3305 8.98319 13.3125 8.91016L13.3439 9.02087L13.3025 9.13327Z" fill="white" stroke="white" stroke-width="0.2625"/>
<path d="M13.4327 11.9295L13.3167 11.8509L13.3166 11.8508L13.2812 11.7246C13.3006 11.7858 13.3349 11.842 13.3818 11.8877C13.3973 11.9029 13.4143 11.9169 13.4327 11.9295Z" fill="white" stroke="white" stroke-width="0.2625"/>
<path d="M14.0172 11.7629C14.0517 11.6835 14.0581 11.5967 14.0391 11.5156L14.0737 11.6381L14.0739 11.6382L14.0172 11.7629Z" fill="white" stroke="white" stroke-width="0.2625"/>
<path d="M11.8738 6.51597C11.8834 6.52534 11.8935 6.5342 11.9043 6.54266L11.8042 6.4636L11.8041 6.46347L11.7734 6.35352C11.793 6.4146 11.8273 6.47062 11.8738 6.51597Z" fill="white" stroke="white" stroke-width="0.420001"/>
<path d="M12.5241 6.12157L12.5234 6.11914C12.5244 6.12208 12.5253 6.12502 12.526 6.12796C12.5253 6.12579 12.5248 6.12374 12.5241 6.12157Z" fill="white" stroke="white" stroke-width="0.420001"/>
<path d="M12.3159 6.59108C12.3284 6.58502 12.3406 6.57845 12.3526 6.57111C12.3407 6.57858 12.3285 6.58514 12.3159 6.59108Z" fill="white" stroke="white" stroke-width="0.420001"/>
<path d="M12.5234 6.11914C12.5244 6.12208 12.5253 6.12502 12.526 6.12796C12.5253 6.12579 12.5248 6.12374 12.5241 6.12157L12.5234 6.11914Z" fill="white" stroke="white" stroke-width="0.420001"/>
<path d="M12.563 6.25118L12.5216 6.36332C12.5469 6.29051 12.5498 6.21221 12.5312 6.13867L12.5628 6.25105L12.563 6.25118Z" fill="white" stroke="white" stroke-width="0.420001"/>
<path d="M14.8655 14.4105L14.2309 15.0614L13.7904 14.9492L13.7902 14.9492L14.7422 13.9727L14.7422 13.9729L14.8655 14.4105Z" fill="white" stroke="white" stroke-width="0.2625"/>
<path d="M12.5477 16.7848L11.8463 17.5042L11.2383 17.5638L11.2381 17.5637L12.0914 16.6885L12.0915 16.6886L12.2343 16.6745C12.2418 16.6738 12.2495 16.6732 12.2569 16.6731C12.2641 16.6727 12.2716 16.6726 12.2793 16.6728C12.2989 16.6729 12.3184 16.6747 12.3371 16.678C12.3431 16.6791 12.3489 16.6799 12.3544 16.6812C12.3661 16.6835 12.3776 16.6866 12.3885 16.6899C12.4012 16.6938 12.4137 16.6984 12.4258 16.7037C12.4316 16.706 12.4372 16.7084 12.4426 16.7112C12.4639 16.7213 12.4838 16.7334 12.5026 16.7468C12.5062 16.7494 12.5098 16.7521 12.5133 16.7548C12.515 16.7562 12.5167 16.7573 12.5184 16.7587C12.523 16.7625 12.5278 16.7664 12.5323 16.7705C12.5373 16.7749 12.5426 16.7798 12.5474 16.7845L12.5477 16.7848Z" fill="white" stroke="white" stroke-width="0.2625"/>
<path d="M17.4246 11.7873L16.7232 12.5068L16.723 12.5065C16.7181 12.5019 16.7133 12.4969 16.7087 12.4918C16.7042 12.4875 16.7002 12.4826 16.696 12.4778C16.695 12.4765 16.6942 12.4752 16.693 12.4741C16.69 12.4701 16.687 12.4665 16.6839 12.4624C16.6789 12.4558 16.674 12.4489 16.6694 12.4419C16.6655 12.4361 16.6619 12.4303 16.6585 12.4245C16.655 12.4185 16.6514 12.4122 16.6484 12.406C16.6466 12.4029 16.6451 12.4 16.6435 12.3967C16.6416 12.392 16.6392 12.3871 16.6371 12.3825C16.6348 12.377 16.6324 12.3714 16.6304 12.3662C16.6258 12.3546 16.6219 12.3427 16.6184 12.3304C16.6174 12.3263 16.6163 12.3222 16.6152 12.3181C16.615 12.3165 16.6149 12.3151 16.6142 12.3139C16.6133 12.3089 16.6123 12.3039 16.6112 12.2988C16.6092 12.2872 16.6073 12.2755 16.6062 12.2635C16.6051 12.2521 16.6045 12.2408 16.6043 12.2297C16.6044 12.2242 16.6044 12.2187 16.6045 12.2135C16.6045 12.2077 16.6047 12.2023 16.6052 12.1969C16.6052 12.1964 16.6053 12.1963 16.6052 12.1961L16.6156 12.0531L16.6155 12.0529L17.4688 11.1777L17.4689 11.1779L17.4246 11.7873Z" fill="white" stroke="white" stroke-width="0.2625"/>
<path d="M10.7284 19.209L6.79425 23.2444C6.64255 23.4 6.3933 23.4033 6.23751 23.2514C6.08172 23.0995 6.07864 22.8503 6.23035 22.6947L10.1892 18.6339L10.1894 18.634L10.3151 18.6122C10.3266 18.6102 10.3379 18.6088 10.3494 18.6079C10.3553 18.6073 10.3611 18.6071 10.367 18.6068C10.3757 18.6064 10.3847 18.6063 10.3929 18.6067C10.4002 18.6068 10.4076 18.6074 10.415 18.608C10.4231 18.6085 10.4312 18.6096 10.4393 18.6109C10.4504 18.6122 10.4611 18.6142 10.4717 18.6169C10.4764 18.6182 10.4813 18.6192 10.4861 18.6206C10.4917 18.622 10.4969 18.6235 10.5019 18.6254C10.5089 18.6273 10.5155 18.6297 10.5218 18.6323C10.5295 18.635 10.537 18.6383 10.5445 18.6415C10.5516 18.6449 10.5583 18.6481 10.565 18.6516C10.5691 18.6539 10.5734 18.6563 10.5775 18.6585C10.6067 18.6751 10.6336 18.6954 10.6571 18.7184C10.6606 18.7218 10.664 18.7251 10.6672 18.729C10.6637 18.7253 10.6603 18.722 10.6568 18.7186L10.4376 18.9435C10.4534 18.9588 10.4692 18.9742 10.4853 18.9892C10.5649 19.065 10.6458 19.1383 10.7284 19.209Z" fill="white" stroke="white" stroke-width="0.2625"/>
</svg>
