<svg width="30" height="31" viewBox="0 0 30 31" fill="none" xmlns="http://www.w3.org/2000/svg">
<path d="M21.7641 20.4175C22.4676 19.6091 22.9875 18.6787 23.3038 17.6777C23.3941 17.3923 23.4677 17.1012 23.524 16.8052C23.6222 16.2923 23.6691 15.7653 23.6622 15.2314C23.6554 14.6974 23.5952 14.1721 23.4838 13.6619L23.0543 13.7828C22.8939 13.8279 22.7292 13.78 22.6178 13.6714C22.5783 13.6329 22.5454 13.5867 22.522 13.5344C22.5222 13.5348 22.522 13.5352 22.5223 13.5355C22.8234 14.6527 22.8384 15.8322 22.5661 16.9565C22.5662 16.9566 22.5659 16.9569 22.5659 16.9572C22.5559 17.0001 22.5449 17.043 22.5336 17.0855C22.5334 17.0856 22.5333 17.0858 22.5333 17.0861C22.533 17.0867 22.533 17.0872 22.533 17.0881C22.2475 18.1724 21.693 19.2005 20.8672 20.066L20.8664 20.0667C20.8495 20.085 20.8323 20.1026 20.8149 20.1204C20.7976 20.1383 20.7803 20.1559 20.7627 20.1732L20.7617 20.1742C19.9174 21.0218 18.9033 21.6024 17.8265 21.9149L17.8261 21.9153C17.7831 21.9279 17.7403 21.9397 17.6972 21.9512C17.6969 21.9512 17.6968 21.9514 17.6965 21.9514C16.5789 22.2522 15.399 22.267 14.2742 21.9942C14.2738 21.994 14.2736 21.9939 14.2735 21.994C14.2304 21.9836 14.1874 21.9727 14.1442 21.9615C14.1443 21.9613 14.1441 21.9612 14.1441 21.9612C14.1437 21.9613 14.1434 21.9614 14.1433 21.9612C13.1728 21.7056 12.2471 21.2339 11.4427 20.5456C11.3483 20.4648 11.2559 20.3811 11.1649 20.2944C11.1465 20.2773 11.1283 20.2597 11.1104 20.2422L11.1032 20.2352L10.4751 20.8795L10.4823 20.8864C10.5901 20.9915 10.7005 21.0934 10.8133 21.1912L10.8135 21.1914C11.6221 21.8952 12.5526 22.4152 13.5536 22.7318L13.5538 22.732C13.8395 22.8224 14.1305 22.8958 14.4264 22.9524C14.9394 23.0507 15.466 23.0976 15.9999 23.0909C16.534 23.084 17.0595 23.0239 17.5697 22.9127C17.8642 22.8489 18.1533 22.768 18.4362 22.6706C19.4288 22.3289 20.3456 21.7858 21.136 21.0618C21.2464 20.961 21.3542 20.8564 21.4592 20.7486C21.5643 20.6408 21.666 20.5306 21.7641 20.4175Z" fill="#FF5710" stroke="#FF5710" stroke-width="0.3"/>
<path d="M12.9751 25.9298C12.8638 25.8213 12.8118 25.658 12.8528 25.4965L13.6658 22.2984C13.7271 22.0576 13.9719 21.912 14.2127 21.9733C14.4537 22.0345 14.5992 22.2795 14.5379 22.5203L13.7249 25.7184C13.6637 25.9592 13.4189 26.1048 13.1781 26.0434C13.0988 26.0232 13.0298 25.9831 12.9751 25.9298Z" fill="#FF5710" stroke="#FF5710" stroke-width="0.3"/>
<path d="M23.1824 23.0559L20.8191 20.7519C20.6412 20.5784 20.6376 20.2934 20.811 20.1156C20.9843 19.9377 21.2693 19.9342 21.4472 20.1076L23.8105 22.4116C23.9884 22.585 23.9921 22.87 23.8187 23.0479C23.6453 23.2257 23.3603 23.2293 23.1824 23.0559Z" fill="#FF5710" stroke="#FF5710" stroke-width="0.3"/>
<path d="M22.5207 13.5344C22.5116 13.5143 22.5039 13.4934 22.4979 13.4717C22.4916 13.449 22.4872 13.4265 22.4844 13.4038C22.4967 13.4474 22.5092 13.4909 22.5207 13.5344Z" fill="#FF5710" stroke="#FF5710" stroke-width="0.3"/>
<path d="M19.193 28.448C19.1383 28.3947 19.0966 28.3267 19.0743 28.248L17.4501 22.4833C17.3826 22.2441 17.522 21.9957 17.7611 21.9284C18.0003 21.861 18.2489 22.0003 18.3162 22.2396L19.9404 28.0043C20.0078 28.2435 19.8685 28.4918 19.6293 28.5592C19.4689 28.6043 19.3043 28.5565 19.193 28.448Z" fill="#FF5710" stroke="#FF5710" stroke-width="0.3"/>
<path d="M22.6669 17.4536C22.5556 17.345 22.5036 17.1817 22.5447 17.0202C22.6059 16.7794 22.8507 16.6338 23.0915 16.6951L28.8956 18.1724C29.1365 18.2336 29.2821 18.4786 29.2208 18.7194C29.1595 18.9602 28.9148 19.1058 28.6739 19.0444L22.8699 17.5672C22.7906 17.5469 22.7216 17.5068 22.6669 17.4536Z" fill="#FF5710" stroke="#FF5710" stroke-width="0.3"/>
<path d="M26.2351 12.8889L23.4883 13.6621L23.0588 13.7831C22.8984 13.8282 22.7337 13.7802 22.6223 13.6717C22.5828 13.6332 22.5499 13.5869 22.5265 13.5346C22.5151 13.491 22.5025 13.4475 22.4903 13.404C22.49 13.4037 22.4901 13.4032 22.4899 13.4028C22.2092 12.4394 21.7148 11.5268 21.0065 10.7405L11.4472 20.5459C11.3528 20.4651 11.2604 20.3813 11.1694 20.2946C11.151 20.2776 11.1328 20.2599 11.1149 20.2424L11.3654 19.9854C11.3694 19.9893 11.3733 19.9931 11.3773 19.9973C11.3736 19.9928 11.3697 19.9891 11.3657 19.9851C11.3388 19.9589 11.3082 19.9357 11.2748 19.9168C11.27 19.9142 11.2652 19.9115 11.2604 19.9089C11.2528 19.9049 11.2451 19.9012 11.237 19.8973C11.2284 19.8936 11.2199 19.8899 11.211 19.8868C11.2038 19.8838 11.1963 19.8811 11.1884 19.8789C11.1826 19.8767 11.1767 19.875 11.1703 19.8734C11.1648 19.8718 11.1592 19.8707 11.1538 19.8692C11.1417 19.8661 11.1295 19.8638 11.1167 19.8623C11.1075 19.8608 11.0982 19.8596 11.089 19.859C11.0806 19.8584 11.0721 19.8576 11.0637 19.8575C11.0543 19.8571 11.0441 19.8572 11.0341 19.8576C11.0274 19.858 11.0208 19.8582 11.014 19.8589C11.0009 19.8599 10.988 19.8616 10.9748 19.8638L10.8313 19.8886L10.8311 19.8885L12.0244 18.6645L12.0245 18.6647L12.7196 18.5964L13.5212 17.7742L13.5209 17.7739C13.5154 17.7685 13.5093 17.7629 13.5035 17.7578C13.4985 17.7532 13.493 17.7487 13.4876 17.7444C13.4857 17.7428 13.4838 17.7415 13.4819 17.7399C13.4779 17.7369 13.4737 17.7337 13.4696 17.7308C13.4481 17.7154 13.4254 17.7016 13.401 17.6901C13.3948 17.6869 13.3885 17.6842 13.3818 17.6815C13.368 17.6755 13.3537 17.6703 13.3393 17.6658C13.3268 17.662 13.3137 17.6585 13.3003 17.6558C13.294 17.6543 13.2873 17.6534 13.2804 17.6521C13.2591 17.6484 13.2368 17.6464 13.2144 17.6462C13.2056 17.646 13.1971 17.6461 13.1889 17.6465C13.1804 17.6466 13.1716 17.6473 13.1629 17.6482L12.9999 17.6641L12.9998 17.664L14.9347 15.6793L14.9349 15.6794L15.4384 15.8076L16.1636 15.0637L16.0227 14.5636L16.0226 14.5634L18.1653 12.3655L18.1655 12.3657L18.1534 12.5293C18.1535 12.5294 18.1534 12.5296 18.1534 12.5302C18.1529 12.5363 18.1527 12.5425 18.1526 12.5491C18.1525 12.5551 18.1525 12.5614 18.1524 12.5677C18.1526 12.5803 18.1533 12.5932 18.1545 12.6063C18.1559 12.62 18.1579 12.6334 18.1603 12.6467C18.1616 12.6525 18.1627 12.6582 18.1638 12.6639C18.1645 12.6652 18.1647 12.6668 18.1648 12.6688C18.1661 12.6734 18.1673 12.6781 18.1685 12.6828C18.1725 12.6968 18.177 12.7104 18.1823 12.7237C18.1845 12.7296 18.1873 12.7361 18.1898 12.7423C18.1923 12.7476 18.195 12.7531 18.1972 12.7585C18.199 12.7623 18.2007 12.7657 18.2028 12.7692C18.2063 12.7763 18.2103 12.7834 18.2144 12.7903C18.2183 12.797 18.2223 12.8035 18.2268 12.8102C18.232 12.8182 18.2377 12.8261 18.2434 12.8336C18.2469 12.8383 18.2504 12.8425 18.2538 12.847C18.2551 12.8483 18.256 12.8497 18.2572 12.8512C18.262 12.8567 18.2668 12.8622 18.2717 12.8673C18.277 12.8731 18.2825 12.8787 18.288 12.8841L18.2883 12.8844L19.0899 12.0621L19.1403 11.3657L19.1402 11.3656L20.3339 10.1412L21.0042 5.56772C21.0401 5.3221 21.2687 5.15207 21.5146 5.18828C21.7605 5.2245 21.9308 5.45301 21.8948 5.69878L21.4045 9.04299L22.6281 7.78787L23.1541 4.20113C23.1901 3.95536 23.4186 3.78549 23.6644 3.82155C23.9105 3.85762 24.0803 4.08599 24.0444 4.3319L23.6988 6.68967L24.8581 5.50046C25.0317 5.32248 25.3165 5.31905 25.4944 5.49248C25.6723 5.66592 25.6761 5.95077 25.5026 6.12876L21.6359 10.0949L21.6361 10.0951C22.3602 10.8856 22.9037 11.8026 23.2456 12.7952C23.2456 12.7952 23.2458 12.7954 23.2456 12.7955L25.9911 12.0228C26.2302 11.9554 26.4788 12.0947 26.5461 12.334C26.6136 12.5732 26.4744 12.8217 26.2351 12.8889Z" fill="#FF5710" stroke="#FF5710" stroke-width="0.3"/>
<path d="M19.0906 12.0624L18.289 12.8846L18.2887 12.8843C18.2832 12.879 18.2777 12.8733 18.2723 12.8675C18.2673 12.8626 18.2627 12.8569 18.2579 12.8514C18.2567 12.85 18.2558 12.8485 18.2545 12.8472C18.251 12.8427 18.2476 12.8385 18.244 12.8339C18.2384 12.8263 18.2327 12.8185 18.2275 12.8105C18.223 12.8038 18.2189 12.7972 18.215 12.7905C18.211 12.7837 18.2069 12.7765 18.2035 12.7694C18.2014 12.7659 18.1997 12.7626 18.1979 12.7588C18.1956 12.7534 18.1929 12.7478 18.1905 12.7426C18.1879 12.7363 18.1852 12.7299 18.1829 12.7239C18.1776 12.7106 18.1732 12.6971 18.1692 12.683C18.168 12.6784 18.1667 12.6737 18.1655 12.669C18.1653 12.6671 18.1652 12.6655 18.1644 12.6642C18.1633 12.6585 18.1622 12.6528 18.161 12.6469C18.1586 12.6336 18.1565 12.6203 18.1552 12.6065C18.154 12.5935 18.1532 12.5806 18.1531 12.568C18.1531 12.5617 18.1532 12.5554 18.1533 12.5494C18.1533 12.5428 18.1535 12.5366 18.1541 12.5304C18.154 12.5298 18.1542 12.5297 18.154 12.5295L18.166 12.3661L18.1659 12.3659L18.5595 6.9604C18.5775 6.71236 18.7933 6.52637 19.0407 6.54438C19.2887 6.56268 19.475 6.77809 19.4569 7.02598L19.141 11.3657L19.1412 11.3658L19.0906 12.0624Z" fill="#FF5710" stroke="#FF5710" stroke-width="0.3"/>
<path d="M19.0879 12.0627L18.2865 12.8846L18.2862 12.8843C18.2807 12.879 18.2752 12.8733 18.2699 12.8675C18.2648 12.8626 18.2602 12.857 18.2555 12.8514C18.2543 12.85 18.2534 12.8485 18.252 12.8472C18.2486 12.8427 18.2452 12.8385 18.2416 12.8339C18.2359 12.8263 18.2303 12.8185 18.225 12.8105C18.2205 12.8038 18.2165 12.7972 18.2126 12.7905C18.2085 12.7837 18.2045 12.7766 18.201 12.7694C18.1989 12.7659 18.1973 12.7626 18.1955 12.7588C18.1932 12.7534 18.1905 12.7479 18.1881 12.7426C18.1855 12.7363 18.1828 12.7299 18.1805 12.7239C18.1755 12.7107 18.1709 12.6969 18.1668 12.683C18.1655 12.6784 18.1643 12.6737 18.1631 12.669C18.1629 12.6671 18.1627 12.6655 18.162 12.6642C18.1609 12.6585 18.1598 12.6528 18.1585 12.6469C18.1562 12.6336 18.1541 12.6203 18.1527 12.6065C18.1516 12.5935 18.1508 12.5806 18.1506 12.568C18.1507 12.5617 18.1508 12.5554 18.1508 12.5494C18.1509 12.5428 18.1511 12.5366 18.1516 12.5304C18.1516 12.5299 18.1518 12.5297 18.1516 12.5296C18.1593 12.4216 18.206 12.3226 18.2785 12.2482C18.351 12.1738 18.4463 12.1254 18.5561 12.1147L19.0879 12.0627Z" fill="#FF5710" stroke="#FF5710" stroke-width="0.3"/>
<path d="M11.3729 19.9972C11.3689 19.993 11.365 19.9893 11.361 19.9853L10.5118 20.8564L10.5142 20.8397L10.6018 20.2418C10.616 20.1444 10.6608 20.0589 10.7246 19.9935C10.7884 19.928 10.8759 19.8801 10.9704 19.8637C10.9836 19.8615 10.9965 19.8599 11.0097 19.8588C11.0164 19.8581 11.023 19.8579 11.0297 19.8575C11.0397 19.8571 11.05 19.857 11.0594 19.8575C11.0677 19.8575 11.0762 19.8583 11.0846 19.8589C11.0938 19.8595 11.1031 19.8607 11.1123 19.8622C11.1251 19.8637 11.1373 19.866 11.1494 19.8691C11.1548 19.8706 11.1604 19.8717 11.1659 19.8733C11.1723 19.875 11.1782 19.8766 11.184 19.8788C11.1919 19.881 11.1994 19.8837 11.2067 19.8867C11.2155 19.8898 11.224 19.8935 11.2326 19.8972C11.2407 19.9011 11.2484 19.9048 11.2561 19.9088C11.2608 19.9114 11.2657 19.9141 11.2704 19.9167C11.3038 19.9356 11.3344 19.9588 11.3613 19.985C11.3653 19.989 11.3692 19.9927 11.3729 19.9972Z" fill="#FF5710"/>
<path d="M11.365 19.9854L10.5158 20.8565L10.4991 20.8593L9.76012 20.9869L9.75997 20.9868L6.42945 21.5617C6.28138 21.587 6.13807 21.5373 6.03843 21.4402C5.9728 21.3762 5.92597 21.292 5.90917 21.1949C5.86673 20.95 6.03089 20.7171 6.27581 20.6747L10.8306 19.8886L10.8308 19.8887L10.9744 19.8637C10.9876 19.8615 11.0005 19.8599 11.0137 19.8588C11.0204 19.8582 11.027 19.8579 11.0337 19.8576C11.0437 19.8572 11.054 19.857 11.0634 19.8575C11.0717 19.8575 11.0802 19.8583 11.0886 19.8589C11.0979 19.8596 11.1071 19.8608 11.1164 19.8623C11.1291 19.8637 11.1413 19.866 11.1534 19.8691C11.1588 19.8707 11.1644 19.8718 11.1699 19.8733C11.1764 19.875 11.1822 19.8767 11.188 19.8788C11.1959 19.881 11.2034 19.8837 11.2107 19.8867C11.2195 19.8898 11.2281 19.8935 11.2366 19.8973C11.2447 19.9011 11.2524 19.9048 11.2601 19.9088C11.2648 19.9114 11.2697 19.9141 11.2744 19.9167C11.3073 19.9358 11.3377 19.9587 11.365 19.9854Z" fill="#FF5710"/>
<path d="M13.5175 17.7741L12.7159 18.5964L12.7547 18.0632C12.7625 17.9532 12.8098 17.8554 12.8811 17.7822C12.9594 17.7019 13.0671 17.6512 13.1852 17.6465C13.1935 17.6461 13.202 17.646 13.2108 17.6461C13.2332 17.6463 13.2555 17.6484 13.2768 17.6521C13.2837 17.6533 13.2903 17.6542 13.2967 17.6558C13.31 17.6584 13.3231 17.6619 13.3356 17.6657C13.3501 17.6702 13.3644 17.6754 13.3782 17.6814C13.3849 17.6841 13.3912 17.6868 13.3974 17.69C13.4217 17.7016 13.4445 17.7153 13.466 17.7308C13.4701 17.7336 13.4742 17.7368 13.4782 17.7399C13.4802 17.7414 13.4821 17.7427 13.484 17.7443C13.4894 17.7487 13.4948 17.7531 13.4999 17.7578C13.5057 17.7628 13.5118 17.7685 13.5172 17.7738L13.5175 17.7741Z" fill="#FF5710"/>
<path d="M13.5154 17.7743L12.7138 18.5965L12.0189 18.6646L12.0188 18.6645L7.68835 19.0906C7.55099 19.1041 7.4219 19.0544 7.33013 18.9649C7.25677 18.8934 7.20729 18.7968 7.19634 18.6868C7.17205 18.4399 7.35265 18.2193 7.6 18.1952L12.9939 17.6642L12.994 17.6644L13.1572 17.6482C13.1658 17.6474 13.1746 17.6467 13.1831 17.6466C13.1913 17.6462 13.1998 17.6461 13.2086 17.6463C13.2311 17.6464 13.2534 17.6485 13.2747 17.6522C13.2816 17.6534 13.2882 17.6544 13.2945 17.6559C13.3079 17.6585 13.321 17.662 13.3335 17.6658C13.3479 17.6703 13.3622 17.6756 13.3761 17.6816C13.3827 17.6843 13.3891 17.687 13.3953 17.6901C13.4196 17.7017 13.4424 17.7155 13.4638 17.7309C13.468 17.7338 13.4721 17.737 13.4761 17.74C13.478 17.7416 13.48 17.7429 13.4819 17.7445C13.4872 17.7488 13.4927 17.7533 13.4978 17.7579C13.5035 17.763 13.5096 17.7686 13.5151 17.774L13.5154 17.7743Z" fill="#FF5710"/>
<path d="M9.06397 22.3381L9.06442 22.3386L8.21505 23.2098L8.30509 22.5952C8.31938 22.4976 8.36403 22.4123 8.428 22.3467C8.49196 22.2811 8.57904 22.2334 8.67355 22.2172C8.6737 22.2171 8.67385 22.2172 8.67414 22.2169C8.68321 22.2153 8.69243 22.2142 8.70121 22.2132C8.70942 22.2125 8.71791 22.2115 8.72626 22.2113C8.73857 22.2108 8.75059 22.2104 8.76262 22.2108C8.77083 22.211 8.77935 22.2118 8.78771 22.2121C8.79652 22.2129 8.80577 22.2138 8.81488 22.2151C8.83971 22.2188 8.86383 22.2244 8.88724 22.2321C8.8949 22.2347 8.90226 22.2372 8.90977 22.2399C8.91876 22.2432 8.92731 22.2469 8.93601 22.2507C8.94324 22.254 8.95032 22.2574 8.95726 22.261C8.96065 22.2626 8.96391 22.2646 8.96701 22.2665C8.98724 22.2775 9.00676 22.2902 9.02483 22.3043L9.02498 22.3045C9.03845 22.3147 9.05121 22.326 9.06353 22.338L9.06397 22.3381Z" fill="#FF5710"/>
<path d="M9.07052 22.3381L9.07097 22.3386L8.2216 23.2098L7.46607 23.3401L5.11785 23.7452C4.97008 23.7708 4.82662 23.7213 4.72684 23.624C4.66105 23.5599 4.61466 23.4756 4.59787 23.3784C4.55542 23.1335 4.71958 22.9006 4.9645 22.8583L8.53672 22.2416L8.6801 22.2169C8.6801 22.2169 8.68039 22.2169 8.68068 22.2166C8.68975 22.215 8.69898 22.2139 8.70776 22.2129C8.71596 22.2122 8.72445 22.2112 8.73281 22.211C8.74512 22.2105 8.75714 22.2101 8.76917 22.2105C8.77738 22.2107 8.7859 22.2115 8.79426 22.2118C8.80307 22.2126 8.81232 22.2135 8.82142 22.2149C8.84625 22.2185 8.87037 22.2241 8.89379 22.2318C8.90144 22.2344 8.90881 22.2369 8.91632 22.2396C8.92531 22.2429 8.93386 22.2466 8.94256 22.2504C8.94979 22.2537 8.95687 22.2571 8.96381 22.2607C8.9672 22.2623 8.97045 22.2643 8.97356 22.2662C8.99364 22.2774 9.01316 22.29 9.03138 22.304L9.03152 22.3042C9.045 22.3144 9.05775 22.3257 9.07008 22.3377L9.07052 22.3381Z" fill="#FF5710"/>
<path d="M15.1513 14.8069L12.1766 14.0496L12.2703 14.1807C12.2108 14.0983 12.1263 14.0405 12.0328 14.0131L12.1764 14.0494L9.01833 9.64362C8.8735 9.44133 8.5924 9.39514 8.39059 9.53976C8.18863 9.68453 8.14225 9.96561 8.28708 10.1676L10.8224 13.7048L9.1653 13.2831L9.25853 13.3951C9.20045 13.3252 9.12283 13.2755 9.03761 13.2507L9.16501 13.2831L6.20516 9.73125C6.0461 9.54028 5.76248 9.51451 5.57156 9.67351C5.38064 9.8325 5.35481 10.1163 5.51402 10.3071L7.67828 12.9043L5.97927 12.4721L5.97883 12.4717L6.07236 12.584C6.01487 12.5149 5.93828 12.4655 5.85408 12.4404L5.97883 12.4717L3.65774 9.68651C3.49883 9.49539 3.21506 9.46977 3.024 9.62892C2.83322 9.78776 2.8074 10.0715 2.96646 10.2625L4.49255 12.0937L2.87783 11.6829C2.63686 11.6214 2.39239 11.7669 2.33083 12.0078C2.28994 12.1694 2.3419 12.3327 2.45312 12.4411C2.50791 12.4946 2.57691 12.5346 2.6562 12.5549L4.27018 12.9656L4.27033 12.9657L2.05577 13.8445C1.82498 13.9363 1.71206 14.1977 1.80374 14.4287C1.82799 14.4893 1.86385 14.542 1.90766 14.5847C2.03091 14.7048 2.21769 14.7485 2.38809 14.681L5.7569 13.344L5.62788 13.3109C5.71347 13.33 5.80401 13.3242 5.88762 13.2922L5.7572 13.344L7.45636 13.7767L4.31498 15.0233C4.08404 15.1149 3.97127 15.3764 4.06295 15.6074C4.08705 15.6682 4.12277 15.7207 4.16673 15.7636C4.28998 15.8837 4.47691 15.9273 4.6473 15.8597L8.94293 14.1549L10.6 14.5767L6.68382 16.4716C6.46028 16.58 6.36667 16.8489 6.47498 17.0726C6.49847 17.121 6.52937 17.1633 6.5659 17.1989C6.69761 17.3273 6.90091 17.3666 7.07607 17.2817L11.954 14.9213L11.9539 14.9212L11.8019 14.8824C11.8989 14.9054 12.003 14.8963 12.0969 14.8521L11.954 14.9213L14.9291 15.6786L15.2919 15.3064L15.151 14.8066L15.1513 14.8069ZM6.11635 13.0974C6.12438 13.0835 6.13153 13.0694 6.13809 13.0549C6.13168 13.0695 6.12453 13.0837 6.11635 13.0974ZM5.85232 12.4401C5.84128 12.4369 5.82995 12.434 5.81863 12.4316C5.82995 12.434 5.84142 12.4368 5.85232 12.4401ZM9.30238 13.9083C9.31041 13.8945 9.31756 13.8803 9.32412 13.8658C9.31771 13.8804 9.31056 13.8946 9.30238 13.9083ZM11.79 14.8795L11.7949 14.8808L11.7985 14.8818C11.7958 14.8811 11.7928 14.8802 11.79 14.8795Z" fill="#FF5710"/>
<path d="M5.97883 12.4717L5.97927 12.4721L7.67828 12.9043L5.51402 10.3071C5.35481 10.1163 5.38064 9.8325 5.57156 9.67351C5.76248 9.51451 6.0461 9.54028 6.20516 9.73125L9.16501 13.2831L9.03761 13.2507C9.12283 13.2755 9.20045 13.3252 9.25853 13.3951L9.1653 13.2831L10.8224 13.7048L8.28708 10.1676C8.14225 9.96561 8.18863 9.68453 8.39059 9.53976C8.5924 9.39514 8.8735 9.44133 9.01833 9.64362L12.1764 14.0494L12.0328 14.0131C12.1263 14.0405 12.2108 14.0983 12.2703 14.1807L12.1766 14.0496L15.1513 14.8069L15.151 14.8066L15.2919 15.3064L14.9291 15.6786L11.954 14.9213M5.97883 12.4717L6.07236 12.584C6.01487 12.5149 5.93828 12.4655 5.85408 12.4404L5.97883 12.4717ZM5.97883 12.4717L3.65774 9.68651C3.49883 9.49539 3.21506 9.46977 3.024 9.62892C2.83322 9.78776 2.8074 10.0715 2.96646 10.2625L4.49255 12.0937L2.87783 11.6829C2.63686 11.6214 2.39239 11.7669 2.33083 12.0078C2.28994 12.1694 2.3419 12.3327 2.45312 12.4411C2.50791 12.4946 2.57691 12.5346 2.6562 12.5549L4.27018 12.9656L4.27033 12.9657L2.05577 13.8445C1.82498 13.9363 1.71206 14.1977 1.80374 14.4287C1.82799 14.4893 1.86385 14.542 1.90766 14.5847C2.03091 14.7048 2.21769 14.7485 2.38809 14.681L5.7569 13.344L5.62788 13.3109C5.71347 13.33 5.80401 13.3242 5.88762 13.2922L5.7572 13.344L7.45636 13.7767L4.31498 15.0233C4.08404 15.1149 3.97127 15.3764 4.06295 15.6074C4.08705 15.6682 4.12277 15.7207 4.16673 15.7636C4.28998 15.8837 4.47691 15.9273 4.6473 15.8597L8.94293 14.1549L10.6 14.5767L6.68382 16.4716C6.46028 16.58 6.36667 16.8489 6.47498 17.0726C6.49847 17.121 6.52937 17.1633 6.5659 17.1989C6.69761 17.3273 6.90091 17.3666 7.07607 17.2817L11.954 14.9213M11.954 14.9213L11.9539 14.9212L11.8019 14.8824C11.8989 14.9054 12.003 14.8963 12.0969 14.8521L11.954 14.9213ZM6.11635 13.0974C6.12438 13.0835 6.13153 13.0694 6.13809 13.0549C6.13168 13.0695 6.12453 13.0837 6.11635 13.0974ZM5.85232 12.4401C5.84128 12.4369 5.82995 12.434 5.81863 12.4316C5.82995 12.434 5.84142 12.4368 5.85232 12.4401ZM9.30238 13.9083C9.31041 13.8945 9.31756 13.8803 9.32412 13.8658C9.31771 13.8804 9.31056 13.8946 9.30238 13.9083ZM11.79 14.8795L11.7949 14.8808L11.7985 14.8818C11.7958 14.8811 11.7928 14.8802 11.79 14.8795Z" stroke="#FF5710" stroke-width="0.3"/>
<path d="M5.97803 12.4716L6.07156 12.584C6.01407 12.5149 5.93748 12.4654 5.85328 12.4404L5.97803 12.4716Z" fill="#FF5710" stroke="#FF5710" stroke-width="0.3"/>
<path d="M5.88947 13.2926L5.75905 13.3444L5.7589 13.3443L5.62973 13.3113C5.71532 13.3304 5.80586 13.3246 5.88947 13.2926Z" fill="#FF5710" stroke="#FF5710" stroke-width="0.3"/>
<path d="M6.14062 13.0547C6.13421 13.0693 6.12706 13.0835 6.11888 13.0972C6.12692 13.0833 6.13407 13.0691 6.14062 13.0547Z" fill="#FF5710" stroke="#FF5710" stroke-width="0.3"/>
<path d="M9.16761 13.2832L9.26084 13.3953C9.20276 13.3253 9.12514 13.2757 9.03992 13.2508L9.16732 13.2832L9.16761 13.2832Z" fill="#FF5710" stroke="#FF5710" stroke-width="0.3"/>
<path d="M9.32812 13.8657C9.32171 13.8803 9.31456 13.8945 9.30638 13.9082C9.31442 13.8943 9.32157 13.8802 9.32812 13.8657Z" fill="#FF5710" stroke="#FF5710" stroke-width="0.3"/>
<path d="M12.1779 14.0496L12.2716 14.1807C12.2121 14.0983 12.1276 14.0405 12.0341 14.0131L12.1777 14.0494L12.1779 14.0496Z" fill="#FF5710" stroke="#FF5710" stroke-width="0.3"/>
<path d="M12.097 14.8523L11.9541 14.9216L11.954 14.9214L11.802 14.8827C11.899 14.9057 12.0031 14.8966 12.097 14.8523Z" fill="#FF5710" stroke="#FF5710" stroke-width="0.3"/>
<path d="M16.1601 15.0634L15.4349 15.8072L14.9315 15.6789L14.9312 15.6789L15.294 15.3068L15.1531 14.8069L15.6564 14.9351L16.1601 15.0634Z" fill="#FF5710" stroke="#FF5710" stroke-width="0.3"/>
<path d="M9.16761 13.2832L9.26084 13.3953C9.20276 13.3253 9.12514 13.2757 9.03992 13.2508L9.16732 13.2832L9.16761 13.2832Z" fill="#FF5710" stroke="#FF5710" stroke-width="0.3"/>
<path d="M9.32812 13.8657C9.32171 13.8803 9.31456 13.8945 9.30638 13.9082C9.31442 13.8943 9.32157 13.8802 9.32812 13.8657Z" fill="#FF5710" stroke="#FF5710" stroke-width="0.3"/>
<path d="M11.7987 14.8808L11.8023 14.8818C11.7996 14.8811 11.7966 14.8802 11.7939 14.8796L11.7987 14.8808Z" fill="#FF5710" stroke="#FF5710" stroke-width="0.3"/>
<path d="M12.097 14.8523L11.9541 14.9216L11.954 14.9214L11.802 14.8827C11.899 14.9057 12.0031 14.8966 12.097 14.8523Z" fill="#FF5710" stroke="#FF5710" stroke-width="0.3"/>
<path d="M12.1779 14.0496L12.2716 14.1807C12.2121 14.0983 12.1276 14.0405 12.0341 14.0131L12.1777 14.0494L12.1779 14.0496Z" fill="#FF5710" stroke="#FF5710" stroke-width="0.3"/>
<path d="M11.7987 14.8808L11.8023 14.8818C11.7996 14.8811 11.7966 14.8802 11.7939 14.8796L11.7987 14.8808Z" fill="#FF5710" stroke="#FF5710" stroke-width="0.3"/>
<path d="M5.82378 12.4319C5.8351 12.4343 5.84657 12.437 5.85747 12.4404C5.84643 12.4372 5.8351 12.4343 5.82378 12.4319Z" fill="#FF5710" stroke="#FF5710" stroke-width="0.3"/>
<path d="M5.88947 13.2926L5.75905 13.3444L5.7589 13.3443L5.62973 13.3113C5.71532 13.3304 5.80586 13.3246 5.88947 13.2926Z" fill="#FF5710" stroke="#FF5710" stroke-width="0.3"/>
<path d="M5.82378 12.4319C5.8351 12.4343 5.84657 12.437 5.85747 12.4404C5.84643 12.4372 5.8351 12.4343 5.82378 12.4319Z" fill="#FF5710" stroke="#FF5710" stroke-width="0.3"/>
<path d="M5.97803 12.4721L6.07156 12.5844C6.01407 12.5154 5.93748 12.4659 5.85328 12.4408L5.97803 12.4721Z" fill="#FF5710" stroke="#FF5710" stroke-width="0.3"/>
<path d="M6.14062 13.0552C6.13421 13.0698 6.12706 13.0839 6.11888 13.0977C6.12692 13.0838 6.13407 13.0696 6.14062 13.0552Z" fill="#FF5710" stroke="#FF5710" stroke-width="0.3"/>
<path d="M15.2718 11.8937L15.2071 12.0362C15.2465 11.9455 15.2537 11.8463 15.232 11.7536L15.2717 11.8936L17.5076 6.95718C17.6101 6.73081 17.5096 6.46403 17.2834 6.36159C17.057 6.259 16.7904 6.35927 16.6879 6.58563L14.8928 10.5487L14.4292 8.90302L14.4291 8.90287L14.3817 9.03133C14.4104 8.94871 14.4137 8.85981 14.3931 8.77634L14.4291 8.90287L16.0242 4.56502C16.1099 4.33183 15.9904 4.0732 15.7572 3.98741C15.5238 3.90148 15.2654 4.021 15.1797 4.25419L14.0131 7.42638L13.5374 5.73876L13.4901 5.86692C13.5191 5.78371 13.5224 5.69422 13.5012 5.61018L13.5373 5.73861L14.7884 2.33647C14.8741 2.10328 14.7545 1.8448 14.5215 1.75887C14.2881 1.67294 14.0297 1.79246 13.9439 2.02565L13.1214 4.26212L12.6696 2.65866C12.6022 2.41947 12.3536 2.2802 12.1145 2.34728C11.8754 2.4145 11.7361 2.66318 11.8036 2.90237L12.2553 4.50583L10.3862 3.02704C10.1913 2.87288 9.90809 2.90576 9.75399 3.10066C9.60971 3.28312 9.62947 3.5427 9.79252 3.70166C9.80366 3.71251 9.81537 3.72278 9.82781 3.73259L12.6713 5.98247L12.6712 5.98232L12.6362 5.85666C12.6585 5.92647 12.6977 5.9905 12.7509 6.04232C12.7618 6.05304 12.7734 6.06316 12.7857 6.07283L12.6713 5.98247L13.1467 7.6701L10.4955 5.57265C10.3005 5.41849 10.0177 5.45137 9.86343 5.64612C9.71914 5.82858 9.73891 6.08816 9.90195 6.24712C9.91309 6.25798 9.92496 6.26839 9.9374 6.2782L13.5631 9.14673L13.5268 9.01815C13.549 9.08899 13.5886 9.15418 13.6425 9.20673C13.6535 9.21745 13.665 9.22757 13.6773 9.23724L13.5634 9.14702L14.0264 10.7924L10.4262 8.34808C10.2206 8.20842 9.94078 8.26193 9.80119 8.4675C9.67685 8.65059 9.70578 8.89276 9.85902 9.04216C9.87773 9.0604 9.89848 9.07715 9.92082 9.09256L14.4057 12.1377L14.4056 12.1376L14.3651 11.9933C14.3873 12.0633 14.4264 12.1275 14.48 12.1797C14.4978 12.1971 14.5172 12.2131 14.5382 12.2275L14.4057 12.1377L15.1577 14.8069L15.6609 14.9351L16.0238 14.5629L15.2718 11.8937ZM13.4978 5.59761C13.497 5.59513 13.4964 5.59279 13.4957 5.5903L13.4949 5.58753C13.496 5.59089 13.497 5.59425 13.4978 5.59761ZM13.258 6.12644C13.2722 6.11951 13.2862 6.112 13.2999 6.10362C13.2864 6.11215 13.2724 6.11966 13.258 6.12644ZM14.3925 8.7743C14.391 8.76786 14.3891 8.76144 14.3871 8.75486L14.3865 8.75194C14.3888 8.75939 14.3908 8.76684 14.3925 8.7743Z" fill="#FF5710"/>
<path d="M14.4291 8.90287L14.4292 8.90302L14.8928 10.5487L16.6879 6.58563C16.7904 6.35927 17.057 6.259 17.2834 6.36159C17.5096 6.46403 17.6101 6.73081 17.5076 6.95718L15.2717 11.8936L15.232 11.7536C15.2537 11.8463 15.2465 11.9455 15.2071 12.0362L15.2718 11.8937L16.0238 14.5629L15.6609 14.9351L15.1577 14.8069L14.4057 12.1377M14.4291 8.90287L14.3817 9.03133C14.4104 8.94871 14.4137 8.85981 14.3931 8.77634L14.4291 8.90287ZM14.4291 8.90287L16.0242 4.56502C16.1099 4.33183 15.9904 4.0732 15.7572 3.98741C15.5238 3.90148 15.2654 4.021 15.1797 4.25419L14.0131 7.42638L13.5374 5.73876L13.4901 5.86692C13.5191 5.78371 13.5224 5.69422 13.5012 5.61018L13.5373 5.73861L14.7884 2.33647C14.8741 2.10328 14.7545 1.8448 14.5215 1.75887C14.2881 1.67294 14.0297 1.79246 13.9439 2.02565L13.1214 4.26212L12.6696 2.65866C12.6022 2.41947 12.3536 2.2802 12.1145 2.34728C11.8754 2.4145 11.7361 2.66318 11.8036 2.90237L12.2553 4.50583L10.3862 3.02704C10.1913 2.87288 9.90809 2.90576 9.75399 3.10066C9.60971 3.28312 9.62947 3.5427 9.79252 3.70166C9.80366 3.71251 9.81537 3.72278 9.82781 3.73259L12.6713 5.98247M12.6713 5.98247L12.6712 5.98232L12.6362 5.85666C12.6585 5.92647 12.6977 5.9905 12.7509 6.04232C12.7618 6.05304 12.7734 6.06316 12.7857 6.07283L12.6713 5.98247ZM12.6713 5.98247L13.1467 7.6701L10.4955 5.57265C10.3005 5.41849 10.0177 5.45137 9.86343 5.64612C9.71914 5.82858 9.73891 6.08816 9.90195 6.24712C9.91309 6.25798 9.92496 6.26839 9.9374 6.2782L13.5631 9.14673L13.5268 9.01815C13.549 9.08899 13.5886 9.15418 13.6425 9.20673C13.6535 9.21745 13.665 9.22757 13.6773 9.23724L13.5634 9.14702L14.0264 10.7924L10.4262 8.34808C10.2206 8.20842 9.94078 8.26193 9.80119 8.4675C9.67685 8.65059 9.70578 8.89276 9.85902 9.04216C9.87773 9.0604 9.89848 9.07715 9.92082 9.09256L14.4057 12.1377M14.4057 12.1377L14.4056 12.1376L14.3651 11.9933C14.3873 12.0633 14.4264 12.1275 14.48 12.1797C14.4978 12.1971 14.5172 12.2131 14.5382 12.2275L14.4057 12.1377ZM13.4978 5.59761C13.497 5.59513 13.4964 5.59279 13.4957 5.5903L13.4949 5.58753C13.496 5.59089 13.497 5.59425 13.4978 5.59761ZM13.258 6.12644C13.2722 6.11951 13.2862 6.112 13.2999 6.10362C13.2864 6.11215 13.2724 6.11966 13.258 6.12644ZM14.3925 8.7743C14.391 8.76786 14.3891 8.76144 14.3871 8.75486L14.3865 8.75194C14.3888 8.75939 14.3908 8.76684 14.3925 8.7743Z" stroke="#FF5710" stroke-width="0.3"/>
<path d="M12.7475 6.04211C12.7585 6.05282 12.7701 6.06294 12.7824 6.07261L12.668 5.98225L12.6679 5.98211L12.6328 5.85645C12.6551 5.92626 12.6944 5.99028 12.7475 6.04211Z" fill="#FF5710" stroke="#FF5710" stroke-width="0.4"/>
<path d="M13.5363 5.73893L13.4889 5.86709C13.5179 5.78388 13.5212 5.6944 13.5 5.61035L13.5361 5.73879L13.5363 5.73893Z" fill="#FF5710" stroke="#FF5710" stroke-width="0.4"/>
<path d="M13.2572 6.12641C13.2715 6.11948 13.2855 6.11198 13.2992 6.10359C13.2856 6.11212 13.2717 6.11963 13.2572 6.12641Z" fill="#FF5710" stroke="#FF5710" stroke-width="0.4"/>
<path d="M13.6391 9.20665C13.6501 9.21736 13.6616 9.22748 13.6739 9.23715L13.56 9.14694L13.5597 9.14665L13.5234 9.01807C13.5456 9.0889 13.5852 9.1541 13.6391 9.20665Z" fill="#FF5710" stroke="#FF5710" stroke-width="0.3"/>
<path d="M14.3792 9.03136C14.4079 8.94873 14.4112 8.85984 14.3906 8.77637L14.4266 8.9029L14.3792 9.03136Z" fill="#FF5710" stroke="#FF5710" stroke-width="0.3"/>
<path d="M14.5325 12.2274L14.3999 12.1375L14.3998 12.1374L14.3594 11.9932C14.3815 12.0631 14.4206 12.1273 14.4742 12.1796C14.4921 12.1969 14.5115 12.213 14.5325 12.2274Z" fill="#FF5710" stroke="#FF5710" stroke-width="0.3"/>
<path d="M15.2016 12.036C15.2411 11.9453 15.2483 11.8461 15.2266 11.7534L15.2662 11.8934L15.2663 11.8935L15.2016 12.036Z" fill="#FF5710" stroke="#FF5710" stroke-width="0.3"/>
<path d="M16.1583 15.0635L15.4331 15.8073L15.2922 15.3072L15.2922 15.3069L15.1513 14.807L15.6546 14.9352L16.0174 14.563L16.0174 14.5633L16.1583 15.0635Z" fill="#FF5710" stroke="#FF5710" stroke-width="0.3"/>
<path d="M13.6391 9.20665C13.6501 9.21736 13.6616 9.22748 13.6739 9.23715L13.56 9.14694L13.5597 9.14665L13.5234 9.01807C13.5456 9.0889 13.5852 9.1541 13.6391 9.20665Z" fill="#FF5710" stroke="#FF5710" stroke-width="0.3"/>
<path d="M14.3888 8.77431C14.3873 8.76788 14.3854 8.76145 14.3834 8.75488L14.3828 8.75195C14.3851 8.7594 14.3871 8.76686 14.3888 8.77431Z" fill="#FF5710" stroke="#FF5710" stroke-width="0.3"/>
<path d="M14.3828 8.75195C14.3851 8.7594 14.3871 8.76686 14.3888 8.77431C14.3873 8.76788 14.3854 8.76145 14.3834 8.75488L14.3828 8.75195Z" fill="#FF5710" stroke="#FF5710" stroke-width="0.3"/>
<path d="M14.3792 9.03136C14.4079 8.94873 14.4112 8.85984 14.3906 8.77637L14.4266 8.9029L14.3792 9.03136Z" fill="#FF5710" stroke="#FF5710" stroke-width="0.3"/>
<path d="M14.5325 12.2279L14.3999 12.138L14.3998 12.1379L14.3594 11.9937C14.3815 12.0636 14.4206 12.1278 14.4742 12.18C14.4921 12.1974 14.5115 12.2135 14.5325 12.2279Z" fill="#FF5710" stroke="#FF5710" stroke-width="0.3"/>
<path d="M15.2016 12.0365C15.2411 11.9458 15.2483 11.8466 15.2266 11.7539L15.2662 11.8939L15.2663 11.894L15.2016 12.0365Z" fill="#FF5710" stroke="#FF5710" stroke-width="0.3"/>
<path d="M12.7475 6.04211C12.7585 6.05282 12.7701 6.06294 12.7824 6.07261L12.668 5.98225L12.6679 5.98211L12.6328 5.85645C12.6551 5.92626 12.6944 5.99028 12.7475 6.04211Z" fill="#FF5710" stroke="#FF5710" stroke-width="0.480001"/>
<path d="M13.493 5.59018L13.4922 5.5874C13.4933 5.59076 13.4943 5.59412 13.4951 5.59748C13.4943 5.595 13.4937 5.59266 13.493 5.59018Z" fill="#FF5710" stroke="#FF5710" stroke-width="0.480001"/>
<path d="M13.2572 6.12641C13.2715 6.11948 13.2855 6.11198 13.2992 6.10359C13.2856 6.11212 13.2717 6.11963 13.2572 6.12641Z" fill="#FF5710" stroke="#FF5710" stroke-width="0.480001"/>
<path d="M13.4922 5.5874C13.4933 5.59076 13.4943 5.59412 13.4951 5.59748C13.4943 5.595 13.4937 5.59266 13.493 5.59018L13.4922 5.5874Z" fill="#FF5710" stroke="#FF5710" stroke-width="0.480001"/>
<path d="M13.5363 5.73893L13.4889 5.86709C13.5179 5.78388 13.5212 5.6944 13.5 5.61035L13.5361 5.73879L13.5363 5.73893Z" fill="#FF5710" stroke="#FF5710" stroke-width="0.480001"/>
<path d="M16.1643 15.0634L15.4391 15.8073L14.9357 15.679L14.9354 15.679L16.0234 14.563L16.0234 14.5633L16.1643 15.0634Z" fill="#FF5710" stroke="#FF5710" stroke-width="0.3"/>
<path d="M13.5177 17.7738L12.7161 18.596L12.0212 18.6641L12.021 18.664L12.9962 17.6637L12.9963 17.6639L13.1595 17.6478C13.1681 17.6469 13.1769 17.6462 13.1854 17.6461C13.1936 17.6457 13.2021 17.6456 13.2109 17.6458C13.2333 17.646 13.2557 17.648 13.277 17.6517C13.2839 17.6529 13.2905 17.6539 13.2968 17.6554C13.3102 17.658 13.3233 17.6615 13.3358 17.6653C13.3502 17.6699 13.3645 17.6751 13.3784 17.6811C13.385 17.6838 13.3913 17.6865 13.3975 17.6896C13.4219 17.7012 13.4446 17.715 13.4661 17.7304C13.4703 17.7333 13.4744 17.7365 13.4784 17.7395C13.4803 17.7411 13.4822 17.7424 13.4842 17.744C13.4895 17.7483 13.495 17.7528 13.5 17.7574C13.5058 17.7625 13.5119 17.7681 13.5174 17.7735L13.5177 17.7738Z" fill="#FF5710" stroke="#FF5710" stroke-width="0.3"/>
<path d="M19.0902 12.0619L18.2886 12.8842L18.2883 12.8839C18.2828 12.8785 18.2773 12.8729 18.2719 12.8671C18.2669 12.8622 18.2623 12.8565 18.2575 12.851C18.2563 12.8495 18.2554 12.8481 18.2541 12.8468C18.2507 12.8423 18.2472 12.8381 18.2437 12.8334C18.238 12.8259 18.2323 12.818 18.2271 12.81C18.2226 12.8033 18.2185 12.7968 18.2146 12.7901C18.2106 12.7832 18.2066 12.7761 18.2031 12.769C18.201 12.7655 18.1993 12.7621 18.1975 12.7583C18.1953 12.7529 18.1925 12.7474 18.1901 12.7421C18.1876 12.7359 18.1848 12.7295 18.1826 12.7235C18.1773 12.7102 18.1728 12.6966 18.1688 12.6826C18.1676 12.6779 18.1664 12.6732 18.1651 12.6686C18.165 12.6667 18.1648 12.665 18.164 12.6637C18.1629 12.658 18.1618 12.6523 18.1606 12.6465C18.1582 12.6332 18.1562 12.6198 18.1548 12.6061C18.1536 12.593 18.1529 12.5801 18.1527 12.5675C18.1528 12.5612 18.1528 12.5549 18.1529 12.5489C18.153 12.5423 18.1532 12.5362 18.1537 12.53C18.1537 12.5294 18.1538 12.5293 18.1537 12.5291L18.1656 12.3656L18.1655 12.3655L19.1406 11.3652L19.1408 11.3654L19.0902 12.0619Z" fill="#FF5710" stroke="#FF5710" stroke-width="0.3"/>
<path d="M11.443 20.5459L6.94678 25.1578C6.77341 25.3357 6.48855 25.3394 6.31051 25.1658C6.13246 24.9922 6.12894 24.7074 6.30232 24.5295L10.8268 19.8887L10.8269 19.8888L10.9706 19.8638C10.9837 19.8616 10.9966 19.86 11.0098 19.859C11.0165 19.8583 11.0231 19.8581 11.0299 19.8577C11.0398 19.8573 11.0501 19.8571 11.0595 19.8576C11.0679 19.8576 11.0764 19.8584 11.0847 19.859C11.094 19.8597 11.1032 19.8609 11.1125 19.8624C11.1253 19.8638 11.1375 19.8661 11.1495 19.8692C11.155 19.8708 11.1606 19.8719 11.166 19.8734C11.1725 19.8751 11.1784 19.8768 11.1841 19.8789C11.1921 19.8812 11.1996 19.8838 11.2068 19.8868C11.2156 19.89 11.2242 19.8937 11.2327 19.8974C11.2409 19.9012 11.2485 19.9049 11.2562 19.9089C11.2609 19.9115 11.2658 19.9142 11.2705 19.9168C11.3039 19.9358 11.3346 19.959 11.3614 19.9852C11.3655 19.9891 11.3693 19.9929 11.373 19.9974C11.369 19.9932 11.3652 19.9894 11.3612 19.9855L11.1106 20.2424C11.1286 20.26 11.1467 20.2776 11.1651 20.2947C11.2561 20.3814 11.3486 20.4651 11.443 20.5459Z" fill="#FF5710" stroke="#FF5710" stroke-width="0.3"/>
</svg>
