<svg width="28" height="28" viewBox="0 0 28 28" fill="none" xmlns="http://www.w3.org/2000/svg">
<g clip-path="url(#clip0_7652_192)">
<path d="M9.625 5.25V1.75C9.625 1.51794 9.71719 1.29538 9.88129 1.13128C10.0454 0.967187 10.2679 0.875 10.5 0.875C10.7321 0.875 10.9546 0.967187 11.1187 1.13128C11.2828 1.29538 11.375 1.51794 11.375 1.75V5.25C11.375 5.48206 11.2828 5.70462 11.1187 5.86872C10.9546 6.03281 10.7321 6.125 10.5 6.125C10.2679 6.125 10.0454 6.03281 9.88129 5.86872C9.71719 5.70462 9.625 5.48206 9.625 5.25ZM14 6.125C14.2321 6.125 14.4546 6.03281 14.6187 5.86872C14.7828 5.70462 14.875 5.48206 14.875 5.25V1.75C14.875 1.51794 14.7828 1.29538 14.6187 1.13128C14.4546 0.967187 14.2321 0.875 14 0.875C13.7679 0.875 13.5454 0.967187 13.3813 1.13128C13.2172 1.29538 13.125 1.51794 13.125 1.75V5.25C13.125 5.48206 13.2172 5.70462 13.3813 5.86872C13.5454 6.03281 13.7679 6.125 14 6.125ZM17.5 6.125C17.7321 6.125 17.9546 6.03281 18.1187 5.86872C18.2828 5.70462 18.375 5.48206 18.375 5.25V1.75C18.375 1.51794 18.2828 1.29538 18.1187 1.13128C17.9546 0.967187 17.7321 0.875 17.5 0.875C17.2679 0.875 17.0454 0.967187 16.8813 1.13128C16.7172 1.29538 16.625 1.51794 16.625 1.75V5.25C16.625 5.48206 16.7172 5.70462 16.8813 5.86872C17.0454 6.03281 17.2679 6.125 17.5 6.125ZM27.825 9.975C27.6858 9.78935 27.4785 9.66661 27.2487 9.63379C27.019 9.60098 26.7857 9.66076 26.6 9.8L24.5 11.375V8.75C24.5 8.51794 24.4078 8.29538 24.2437 8.13128C24.0796 7.96719 23.8571 7.875 23.625 7.875H4.375C4.14294 7.875 3.92038 7.96719 3.75629 8.13128C3.59219 8.29538 3.5 8.51794 3.5 8.75V11.375L1.4 9.8C1.21435 9.66076 0.980992 9.60098 0.75126 9.63379C0.521528 9.66661 0.314242 9.78935 0.175004 9.975C0.0357649 10.1607 -0.0240211 10.394 0.00879777 10.6237C0.0416166 10.8535 0.164352 11.0608 0.350004 11.2L3.5 13.5625V20.125C3.5 21.0533 3.86875 21.9435 4.52513 22.5999C5.18151 23.2563 6.07175 23.625 7 23.625H21C21.9283 23.625 22.8185 23.2563 23.4749 22.5999C24.1313 21.9435 24.5 21.0533 24.5 20.125V13.5625L27.65 11.2C27.7419 11.1311 27.8194 11.0447 27.8779 10.9458C27.9365 10.8469 27.975 10.7375 27.9912 10.6237C28.0075 10.51 28.0011 10.3942 27.9726 10.2828C27.9441 10.1715 27.8939 10.0669 27.825 9.975Z" fill="white"/>
</g>
<defs>
<clipPath id="clip0_7652_192">
<rect width="28" height="28" fill="white"/>
</clipPath>
</defs>
</svg>
